<?xml version="1.0" encoding="UTF-8"?>
<svg version="1.1" xmlns="http://www.w3.org/2000/svg" width="495" height="478">
<path d="M0 0 C1.94990121 -0.0038999 3.8998016 -0.00823716 5.84970093 -0.01298523 C9.91919721 -0.02040261 13.98860669 -0.02018988 18.05810547 -0.01489258 C23.21472789 -0.00911752 28.37098882 -0.02600363 33.52755165 -0.04923725 C37.55160521 -0.06413685 41.57557507 -0.0648243 45.59965134 -0.06172752 C47.4978138 -0.06223308 49.39598194 -0.06732266 51.29411697 -0.07753944 C70.11120686 -0.16638514 87.89102779 1.84354135 105.6484375 8.30078125 C106.28620117 8.52636719 106.92396484 8.75195312 107.58105469 8.984375 C116.97246948 12.34082208 125.36075176 16.70845041 133.6484375 22.30078125 C134.58300781 22.92855469 135.51757812 23.55632813 136.48046875 24.203125 C143.78156847 29.31076128 150.21137429 35.17197177 156.6484375 41.30078125 C157.71191406 42.26757812 157.71191406 42.26757812 158.796875 43.25390625 C168.25655453 52.13442173 176.12637822 63.60526696 181.6484375 75.30078125 C181.95346191 75.93338867 182.25848633 76.56599609 182.57275391 77.21777344 C192.11327179 97.28495731 196.79418246 118.52516851 196.81640625 140.68359375 C196.81973465 141.85606659 196.82306305 143.02853943 196.82649231 144.23654175 C196.83153496 146.70912283 196.83390146 149.18171066 196.83374023 151.65429688 C196.8359186 155.39334639 196.85408095 159.13209662 196.87304688 162.87109375 C196.90102829 174.86360999 196.74263952 186.47605493 194.6484375 198.30078125 C194.37384944 200.27943048 194.10246595 202.25853026 193.8359375 204.23828125 C192.53196838 211.81760175 190.1148704 219.03830118 187.6484375 226.30078125 C187.29007812 227.39390625 186.93171875 228.48703125 186.5625 229.61328125 C182.01398985 242.51685615 174.62759987 254.97375345 165.6484375 265.30078125 C164.95105469 266.10644531 164.25367188 266.91210938 163.53515625 267.7421875 C145.89466106 287.6981881 145.89466106 287.6981881 139.6484375 290.30078125 C135.0639021 289.25572077 131.8991843 286.21539074 128.4609375 283.17578125 C127.30559599 282.17603249 126.14933755 281.17734243 124.9921875 280.1796875 C124.14140625 279.44322998 124.14140625 279.44322998 123.2734375 278.69189453 C121.04216816 276.78177243 118.75898241 274.9422632 116.4609375 273.11328125 C115.28337891 272.17548828 115.28337891 272.17548828 114.08203125 271.21875 C112.33050824 269.8383362 110.57180248 268.4670185 108.80859375 267.1015625 C107.88949219 266.38355469 106.97039062 265.66554688 106.0234375 264.92578125 C104.76660156 263.95511719 104.76660156 263.95511719 103.484375 262.96484375 C102.57558594 262.14113281 102.57558594 262.14113281 101.6484375 261.30078125 C101.6484375 260.64078125 101.6484375 259.98078125 101.6484375 259.30078125 C100.82279297 258.96046875 100.82279297 258.96046875 99.98046875 258.61328125 C84.43451171 249.86379789 75.82313822 230.65830156 69.6484375 214.80078125 C63.24131913 198.35377474 56.69223138 185.80992891 40.0859375 178.05078125 C25.98005526 172.25384334 11.91556699 173.08523213 -2.1640625 178.42578125 C-18.62305712 185.51229282 -27.86335064 197.38924919 -34.45703125 213.55078125 C-37.12214192 221.7439599 -37.90553587 229.91876527 -38.4765625 238.48828125 C-38.5593042 239.71772461 -38.6420459 240.94716797 -38.72729492 242.21386719 C-40.80091969 273.91217761 -40.80091969 273.91217761 -30.5390625 303.42578125 C-28.29186424 308.86636651 -30.56154609 314.43598859 -32.35546875 319.80859375 C-32.76240967 321.0318335 -33.16935059 322.25507324 -33.58862305 323.51538086 C-34.03008067 324.81896811 -34.47190187 326.12243228 -34.9140625 327.42578125 C-35.36829594 328.77936131 -35.82247837 330.13295849 -36.27661133 331.48657227 C-39.14365355 339.98401807 -42.23832725 348.37253106 -45.51293945 356.72119141 C-49.85785834 367.95763134 -53.09050007 379.55763413 -56.46484375 391.11328125 C-60.08331763 403.26420587 -65.00497445 414.81932614 -70.3515625 426.30078125 C-72.02515366 429.96431312 -73.68863602 433.63239859 -75.3515625 437.30078125 C-75.66738281 437.99171875 -75.98320312 438.68265625 -76.30859375 439.39453125 C-77.34486574 441.68755864 -78.35104551 443.99189589 -79.3515625 446.30078125 C-79.61759277 446.90696289 -79.88362305 447.51314453 -80.15771484 448.13769531 C-83.86391013 456.62810441 -87.04149044 464.71858277 -88.74609375 473.859375 C-89.3515625 476.30078125 -89.3515625 476.30078125 -91.3515625 478.30078125 C-93.66662598 478.55474854 -93.66662598 478.55474854 -96.59570312 478.55957031 C-98.23750549 478.56902679 -98.23750549 478.56902679 -99.91247559 478.57867432 C-101.09893677 478.57462585 -102.28539795 478.57057739 -103.5078125 478.56640625 C-104.72102173 478.5683197 -105.93423096 478.57023315 -107.1842041 478.57220459 C-109.75317593 478.57356759 -112.32215462 478.56986317 -114.89111328 478.56152344 C-118.83511754 478.55082585 -122.77866625 478.56141519 -126.72265625 478.57421875 C-129.21354268 478.57289718 -131.70442882 478.57033483 -134.1953125 478.56640625 C-135.97500427 478.57247894 -135.97500427 478.57247894 -137.79064941 478.57867432 C-138.88518433 478.57237 -139.97971924 478.56606567 -141.10742188 478.55957031 C-142.55731506 478.55718353 -142.55731506 478.55718353 -144.03649902 478.55474854 C-146.3515625 478.30078125 -146.3515625 478.30078125 -148.3515625 476.30078125 C-148.55164668 473.43698166 -148.62514458 470.6695401 -148.61225891 467.80433655 C-148.61608446 466.91452998 -148.61991001 466.02472341 -148.62385148 465.10795301 C-148.63421975 462.10844933 -148.6301821 459.1091357 -148.6262207 456.10961914 C-148.63056506 453.96643394 -148.63574728 451.82325029 -148.64170837 449.68006897 C-148.65513932 443.8454439 -148.6556725 438.01088345 -148.65314507 432.17624593 C-148.65207813 427.31263562 -148.65695161 422.44903853 -148.6617505 417.58543104 C-148.67285984 406.11529365 -148.67327507 394.645189 -148.66723633 383.17504883 C-148.66119409 371.32576383 -148.6735107 359.4765975 -148.6948064 347.62733275 C-148.71239547 337.46851087 -148.71842802 327.30972685 -148.71516865 317.15089029 C-148.71335135 311.0770781 -148.71603637 305.00335055 -148.72988319 298.92955208 C-148.74241316 293.21931592 -148.7405634 287.50926536 -148.72747231 281.79903221 C-148.7250964 279.69912785 -148.7278772 277.59921061 -148.73609543 275.49932098 C-148.74647915 272.64073185 -148.73853001 269.78277523 -148.7257843 266.92420959 C-148.73315859 266.08608563 -148.74053287 265.24796167 -148.74813062 264.38444 C-148.6948483 258.73484055 -148.6948483 258.73484055 -146.99661416 256.5875501 C-144.53146762 254.65929833 -142.53136818 254.94543398 -139.44140625 254.97265625 C-137.70987305 254.98039062 -137.70987305 254.98039062 -135.94335938 254.98828125 C-134.73744141 255.00890625 -133.53152344 255.02953125 -132.2890625 255.05078125 C-131.07927734 255.0559375 -129.86949219 255.06109375 -128.62304688 255.06640625 C-119.65998951 255.14656775 -119.65998951 255.14656775 -117.3515625 256.30078125 C-117.33174316 256.96609863 -117.31192383 257.63141602 -117.29150391 258.31689453 C-117.19579832 261.35356393 -117.08630442 264.38958803 -116.9765625 267.42578125 C-116.945625 268.4725 -116.9146875 269.51921875 -116.8828125 270.59765625 C-116.68391617 275.83525955 -116.43487875 280.40583494 -114.3515625 285.30078125 C-108.47782043 284.94658575 -105.3072284 283.20403632 -101.1015625 279.30078125 C-99.96309882 278.28939655 -98.82376249 277.27899338 -97.68359375 276.26953125 C-96.84175537 275.51349609 -96.84175537 275.51349609 -95.98291016 274.7421875 C-93.64940223 272.68037505 -91.22163083 270.74401962 -88.7890625 268.80078125 C-84.31003643 265.16035367 -80.06301466 261.32988815 -75.8449707 257.39550781 C-72.4999047 254.29469854 -69.04621802 251.39489703 -65.4765625 248.55078125 C-57.96900184 242.53252136 -57.96900184 242.53252136 -53.3515625 234.30078125 C-55.20578946 228.07839125 -59.33472254 223.89308879 -64.1015625 219.73828125 C-64.72264893 219.18035889 -65.34373535 218.62243652 -65.98364258 218.04760742 C-67.76312097 216.45380566 -69.55580767 214.87618843 -71.3515625 213.30078125 C-72.20621094 212.53507813 -73.06085938 211.769375 -73.94140625 210.98046875 C-76.67837937 208.5442059 -79.29694835 206.33719068 -82.3515625 204.30078125 C-82.3515625 203.64078125 -82.3515625 202.98078125 -82.3515625 202.30078125 C-82.87363281 202.08808594 -83.39570313 201.87539062 -83.93359375 201.65625 C-87.3548658 199.7383479 -90.10466903 197.19864299 -93.0390625 194.61328125 C-94.29200295 193.5301318 -95.54590871 192.44809796 -96.80078125 191.3671875 C-98.88880846 189.56487284 -100.97477108 187.76030744 -103.05859375 185.953125 C-107.44893279 182.2551857 -107.44893279 182.2551857 -112.9140625 180.86328125 C-114.120625 181.07984375 -114.120625 181.07984375 -115.3515625 181.30078125 C-116.78936143 188.19271002 -116.69319358 195.23005422 -116.86914062 202.2421875 C-116.90330078 203.24636719 -116.93746094 204.25054687 -116.97265625 205.28515625 C-116.9977124 206.20006836 -117.02276855 207.11498047 -117.04858398 208.05761719 C-117.3515625 210.30078125 -117.3515625 210.30078125 -119.3515625 212.30078125 C-122.02539063 212.55957031 -122.02539063 212.55957031 -125.3828125 212.56640625 C-126.58550781 212.56898438 -127.78820312 212.5715625 -129.02734375 212.57421875 C-130.92033203 212.56261719 -130.92033203 212.56261719 -132.8515625 212.55078125 C-134.11355469 212.55851563 -135.37554687 212.56625 -136.67578125 212.57421875 C-137.87847656 212.57164062 -139.08117187 212.5690625 -140.3203125 212.56640625 C-141.42826172 212.56415039 -142.53621094 212.56189453 -143.67773438 212.55957031 C-146.3515625 212.30078125 -146.3515625 212.30078125 -148.3515625 210.30078125 C-148.51653484 207.58957316 -148.54840744 204.98367131 -148.49609375 202.2734375 C-148.48737747 201.40533951 -148.47866119 200.53724152 -148.46968079 199.64283752 C-148.44899996 197.65322356 -148.42397659 195.66365194 -148.39556885 193.6741333 C-148.34777516 190.01045912 -148.32153456 186.34701622 -148.29833984 182.68310547 C-148.25658847 176.26760484 -148.19326612 169.8525656 -148.1158123 163.43739891 C-148.0711493 159.71194817 -148.031756 155.98661346 -148.00512695 152.26098633 C-147.67252226 107.04961428 -137.87285296 69.82048129 -105.38598633 37.00537109 C-95.51010515 27.30078125 -95.51010515 27.30078125 -91.3515625 27.30078125 C-91.3515625 26.64078125 -91.3515625 25.98078125 -91.3515625 25.30078125 C-64.89775352 5.89537331 -32.08789917 -0.02706825 0 0 Z M-3.3515625 70.30078125 C-13.50605227 82.04664628 -16.42063578 95.14709167 -15.3515625 110.30078125 C-13.7127401 120.72589519 -8.71874548 130.7289543 -1.3515625 138.30078125 C-0.6915625 138.30078125 -0.0315625 138.30078125 0.6484375 138.30078125 C0.6484375 138.96078125 0.6484375 139.62078125 0.6484375 140.30078125 C13.07561339 149.86154285 24.7776975 153.77636658 40.6484375 152.30078125 C54.21711971 149.50899487 65.89570638 142.99112687 74.47265625 131.953125 C82.21459617 119.95994351 84.57409243 106.57815306 81.953125 92.58984375 C78.66680666 79.8588122 72.37076326 69.39552581 61.45703125 61.76953125 C59.23152117 60.46368634 57.00370402 59.354044 54.6484375 58.30078125 C53.80539062 57.92050781 52.96234375 57.54023437 52.09375 57.1484375 C31.69755289 48.84216013 11.58172227 55.00071404 -3.3515625 70.30078125 Z " fill="#DCDCDC" transform="translate(298.3515625,-0.30078125)"/>
<path d="M0 0 C32.34 0 64.68 0 98 0 C99.77384392 4.43460979 100.25080214 6.3185108 100.2561264 10.84972572 C100.2623585 12.02738459 100.26859059 13.20504346 100.27501154 14.41838896 C100.27171257 15.70832994 100.26841359 16.99827092 100.26501465 18.32730103 C100.2685859 19.71480818 100.27303672 21.10231331 100.27829123 22.48981512 C100.29021895 26.30295075 100.28977237 30.11600052 100.28735614 33.92915034 C100.28693684 38.04278791 100.2980341 42.15639584 100.30781555 46.27001953 C100.32328187 53.40334851 100.33168307 60.5366577 100.33552551 67.67000198 C100.3412804 78.01302965 100.35988239 88.35600437 100.38196605 98.69900863 C100.41771054 115.51856868 100.44600512 132.33813176 100.46826172 149.15771484 C100.46959671 150.16461398 100.4709317 151.17151311 100.47230715 152.20892434 C100.48172486 159.34761599 100.490883 166.48630796 100.5 173.625 C100.51038043 181.74137397 100.52090548 189.85774772 100.53173828 197.97412109 C100.53306902 198.97312009 100.53439977 199.97211908 100.53577083 201.00139077 C100.55829712 217.73152803 100.58854515 234.46164312 100.62413073 251.19175756 C100.64566387 261.48966707 100.66037922 271.78754201 100.66596949 282.08547275 C100.67025692 289.16725144 100.68159844 296.24899736 100.69819343 303.33075781 C100.70748526 307.40088963 100.71375612 311.47096034 100.71113014 315.54110336 C100.70371938 330.36074515 100.80993884 345.15412927 101.76794434 359.94979858 C101.82855246 361.01441869 101.88916059 362.0790388 101.95160532 363.17592013 C102.62119861 372.02921611 104.60791807 379.85560341 110 387 C110 387.66 110 388.32 110 389 C110.66 389 111.32 389 112 389 C114.1875 391 114.1875 391 115.50367737 392.42744446 C116.98557841 394.04833576 116.98557841 394.04833576 118.77940369 395.46549988 C123.43898524 399.73737571 124.51471793 403.18416351 124.82641602 409.4699707 C124.8643082 412.4575255 124.81439167 415.43882714 124.75390625 418.42578125 C124.74591409 420.02140676 124.74074652 421.61704867 124.73826599 423.21269226 C124.72607209 426.54252096 124.69124936 429.87101871 124.63793945 433.20043945 C124.56980763 437.4688423 124.54107698 441.73631009 124.52694798 446.00520039 C124.51183385 450.08301788 124.47741895 454.1606037 124.44140625 458.23828125 C124.43349154 459.40397864 124.43349154 459.40397864 124.42541695 460.59322548 C124.40698028 462.78811617 124.37483538 464.98234995 124.33813477 467.17700195 C124.31312645 469.04942314 124.31312645 469.04942314 124.28761292 470.95967102 C124 474 124 474 122 477 C119.25778592 477.91407136 117.62331092 478.13074113 114.79833984 478.14526367 C113.52958511 478.15483345 113.52958511 478.15483345 112.23519897 478.16459656 C110.86193954 478.16626579 110.86193954 478.16626579 109.4609375 478.16796875 C108.50667877 478.17129715 107.55242004 478.17462555 106.56924438 478.17805481 C104.53998292 478.1831244 102.5107131 478.18546313 100.48144531 478.18530273 C97.43539777 478.18745728 94.38973187 478.20552241 91.34375 478.22460938 C61.50930344 478.31449009 61.50930344 478.31449009 47.5625 473.3125 C46.81154053 473.04977295 46.06058105 472.7870459 45.28686523 472.51635742 C39.09630483 470.24154926 33.96437638 467.38928678 29 463 C28.08863281 462.19691406 27.17726563 461.39382813 26.23828125 460.56640625 C9.92567771 445.23300402 0.4563593 422.90925663 -0.44873585 400.5580373 C-0.52477598 396.8323331 -0.51022111 393.110265 -0.48101807 389.38412476 C-0.4827678 387.6897934 -0.48628004 385.99546312 -0.49137473 384.30113852 C-0.50021974 379.70122348 -0.48445751 375.10168869 -0.46426249 370.50182199 C-0.44684876 365.52049791 -0.45284395 360.53919207 -0.45587158 355.55784607 C-0.45796021 346.94588593 -0.44550243 338.33404783 -0.42292023 329.72211838 C-0.39029236 317.27101996 -0.37998221 304.81998004 -0.37496826 292.36884351 C-0.36623246 272.16350553 -0.33966361 251.95823246 -0.30175781 231.75292969 C-0.2649932 212.13541995 -0.23670326 192.5179279 -0.21972656 172.90039062 C-0.21867567 171.68941245 -0.21762477 170.47843427 -0.21654204 169.23075978 C-0.21132156 163.15511431 -0.2062668 157.07946872 -0.20129442 151.00382304 C-0.15988584 100.66915769 -0.08617692 50.33461252 0 0 Z " fill="#DCDCDC" transform="translate(0,0)"/>
<path d="M0 0 C4.41576253 0.5837155 7.87256565 3.16958355 11.5625 5.5 C12.27124268 5.94561279 12.97998535 6.39122559 13.71020508 6.8503418 C29.02734357 16.65088327 39.9378185 26.61522127 44.25 44.625 C44.53665527 45.77508545 44.82331055 46.9251709 45.11865234 48.11010742 C45.92045314 51.35240267 46.70732521 54.59752294 47.48449707 57.84576416 C48.02487119 60.10393423 48.56841464 62.36132668 49.11230469 64.61865234 C53.0321374 80.91075202 56.91243463 97.21523831 60.50439453 113.58325195 C61.23976164 116.89377719 62.01646785 120.04807921 63.1171875 123.26171875 C63.98499521 125.9534586 64.24016919 128.00188058 64.1875 130.8125 C64.18105469 131.58207031 64.17460937 132.35164062 64.16796875 133.14453125 C64 135 64 135 63 136 C60.6486933 136.1214891 58.3261969 136.17856862 55.97338867 136.19287109 C54.87090034 136.20513733 54.87090034 136.20513733 53.74613953 136.21765137 C51.30342434 136.24255042 48.86076746 136.25903325 46.41796875 136.2734375 C45.16912116 136.28142302 45.16912116 136.28142302 43.89504433 136.28956985 C39.48790023 136.31632178 35.08078466 136.33568959 30.67358398 136.35009766 C26.1167977 136.36674568 21.56073468 136.41151819 17.00422192 136.4624691 C13.50494032 136.49609851 10.00583119 136.50767036 6.50640297 136.51332474 C4.82662749 136.52004984 3.14686385 136.53530463 1.4672451 136.55921555 C-0.88417327 136.59077836 -3.23363117 136.59091829 -5.58520508 136.58349609 C-6.27990906 136.59990143 -6.97461304 136.61630676 -7.69036865 136.63320923 C-11.33662655 136.58607644 -12.73883674 136.25462997 -15.38920593 133.67056274 C-17 131 -17 131 -18.1875 127.6875 C-22.05943573 118.33032199 -33.16828041 113.18259094 -41.42578125 108.19921875 C-44.06936056 106.59967903 -46.57673394 104.924908 -49 103 C-48.30092815 99.0221827 -46.36389138 95.74098932 -44.4375 92.25 C-38.00589773 80.38207612 -32.0981332 68.28503976 -26.35791016 56.06958008 C-23.96174278 50.98403689 -21.48281279 45.94977933 -18.9375 40.9375 C-12.93581467 29.06099909 -7.5283644 16.92470142 -3.0078125 4.40625 C-2 2 -2 2 0 0 Z " fill="#DDDDDD" transform="translate(310,342)"/>
<path d="M0 0 C1.94990121 -0.0038999 3.8998016 -0.00823716 5.84970093 -0.01298523 C9.91919721 -0.02040261 13.98860669 -0.02018988 18.05810547 -0.01489258 C23.21472789 -0.00911752 28.37098882 -0.02600363 33.52755165 -0.04923725 C37.55160521 -0.06413685 41.57557507 -0.0648243 45.59965134 -0.06172752 C47.4978138 -0.06223308 49.39598194 -0.06732266 51.29411697 -0.07753944 C70.11120686 -0.16638514 87.89102779 1.84354135 105.6484375 8.30078125 C106.28620117 8.52636719 106.92396484 8.75195312 107.58105469 8.984375 C116.97246948 12.34082208 125.36075176 16.70845041 133.6484375 22.30078125 C134.58300781 22.92855469 135.51757812 23.55632813 136.48046875 24.203125 C143.78156847 29.31076128 150.21137429 35.17197177 156.6484375 41.30078125 C157.71191406 42.26757812 157.71191406 42.26757812 158.796875 43.25390625 C168.25655453 52.13442173 176.12637822 63.60526696 181.6484375 75.30078125 C181.95346191 75.93338867 182.25848633 76.56599609 182.57275391 77.21777344 C192.11327179 97.28495731 196.79418246 118.52516851 196.81640625 140.68359375 C196.81973465 141.85606659 196.82306305 143.02853943 196.82649231 144.23654175 C196.83153496 146.70912283 196.83390146 149.18171066 196.83374023 151.65429688 C196.8359186 155.39334639 196.85408095 159.13209662 196.87304688 162.87109375 C196.90102829 174.86360999 196.74263952 186.47605493 194.6484375 198.30078125 C194.37384944 200.27943048 194.10246595 202.25853026 193.8359375 204.23828125 C192.53196838 211.81760175 190.1148704 219.03830118 187.6484375 226.30078125 C187.29007812 227.39390625 186.93171875 228.48703125 186.5625 229.61328125 C182.01398985 242.51685615 174.62759987 254.97375345 165.6484375 265.30078125 C164.95105469 266.10644531 164.25367188 266.91210938 163.53515625 267.7421875 C145.89466106 287.6981881 145.89466106 287.6981881 139.6484375 290.30078125 C135.0639021 289.25572077 131.8991843 286.21539074 128.4609375 283.17578125 C127.30559599 282.17603249 126.14933755 281.17734243 124.9921875 280.1796875 C124.14140625 279.44322998 124.14140625 279.44322998 123.2734375 278.69189453 C121.04216816 276.78177243 118.75898241 274.9422632 116.4609375 273.11328125 C115.28337891 272.17548828 115.28337891 272.17548828 114.08203125 271.21875 C112.33050824 269.8383362 110.57180248 268.4670185 108.80859375 267.1015625 C107.88949219 266.38355469 106.97039062 265.66554688 106.0234375 264.92578125 C104.76660156 263.95511719 104.76660156 263.95511719 103.484375 262.96484375 C102.57558594 262.14113281 102.57558594 262.14113281 101.6484375 261.30078125 C101.6484375 260.64078125 101.6484375 259.98078125 101.6484375 259.30078125 C100.82279297 258.96046875 100.82279297 258.96046875 99.98046875 258.61328125 C84.43451171 249.86379789 75.82313822 230.65830156 69.6484375 214.80078125 C63.24131913 198.35377474 56.69223138 185.80992891 40.0859375 178.05078125 C25.98005526 172.25384334 11.91556699 173.08523213 -2.1640625 178.42578125 C-18.62305712 185.51229282 -27.86335064 197.38924919 -34.45703125 213.55078125 C-37.12214192 221.7439599 -37.90553587 229.91876527 -38.4765625 238.48828125 C-38.5593042 239.71772461 -38.6420459 240.94716797 -38.72729492 242.21386719 C-40.80091969 273.91217761 -40.80091969 273.91217761 -30.5390625 303.42578125 C-28.29186424 308.86636651 -30.56154609 314.43598859 -32.35546875 319.80859375 C-32.76240967 321.0318335 -33.16935059 322.25507324 -33.58862305 323.51538086 C-34.03008067 324.81896811 -34.47190187 326.12243228 -34.9140625 327.42578125 C-35.36829594 328.77936131 -35.82247837 330.13295849 -36.27661133 331.48657227 C-39.14365355 339.98401807 -42.23832725 348.37253106 -45.51293945 356.72119141 C-49.85785834 367.95763134 -53.09050007 379.55763413 -56.46484375 391.11328125 C-60.08331763 403.26420587 -65.00497445 414.81932614 -70.3515625 426.30078125 C-72.02515366 429.96431312 -73.68863602 433.63239859 -75.3515625 437.30078125 C-75.66738281 437.99171875 -75.98320312 438.68265625 -76.30859375 439.39453125 C-77.34486574 441.68755864 -78.35104551 443.99189589 -79.3515625 446.30078125 C-79.61759277 446.90696289 -79.88362305 447.51314453 -80.15771484 448.13769531 C-83.86391013 456.62810441 -87.04149044 464.71858277 -88.74609375 473.859375 C-89.3515625 476.30078125 -89.3515625 476.30078125 -91.3515625 478.30078125 C-93.66662598 478.55474854 -93.66662598 478.55474854 -96.59570312 478.55957031 C-98.23750549 478.56902679 -98.23750549 478.56902679 -99.91247559 478.57867432 C-101.09893677 478.57462585 -102.28539795 478.57057739 -103.5078125 478.56640625 C-104.72102173 478.5683197 -105.93423096 478.57023315 -107.1842041 478.57220459 C-109.75317593 478.57356759 -112.32215462 478.56986317 -114.89111328 478.56152344 C-118.83511754 478.55082585 -122.77866625 478.56141519 -126.72265625 478.57421875 C-129.21354268 478.57289718 -131.70442882 478.57033483 -134.1953125 478.56640625 C-135.97500427 478.57247894 -135.97500427 478.57247894 -137.79064941 478.57867432 C-138.88518433 478.57237 -139.97971924 478.56606567 -141.10742188 478.55957031 C-142.55731506 478.55718353 -142.55731506 478.55718353 -144.03649902 478.55474854 C-146.3515625 478.30078125 -146.3515625 478.30078125 -148.3515625 476.30078125 C-148.55164668 473.43698166 -148.62514458 470.6695401 -148.61225891 467.80433655 C-148.61608446 466.91452998 -148.61991001 466.02472341 -148.62385148 465.10795301 C-148.63421975 462.10844933 -148.6301821 459.1091357 -148.6262207 456.10961914 C-148.63056506 453.96643394 -148.63574728 451.82325029 -148.64170837 449.68006897 C-148.65513932 443.8454439 -148.6556725 438.01088345 -148.65314507 432.17624593 C-148.65207813 427.31263562 -148.65695161 422.44903853 -148.6617505 417.58543104 C-148.67285984 406.11529365 -148.67327507 394.645189 -148.66723633 383.17504883 C-148.66119409 371.32576383 -148.6735107 359.4765975 -148.6948064 347.62733275 C-148.71239547 337.46851087 -148.71842802 327.30972685 -148.71516865 317.15089029 C-148.71335135 311.0770781 -148.71603637 305.00335055 -148.72988319 298.92955208 C-148.74241316 293.21931592 -148.7405634 287.50926536 -148.72747231 281.79903221 C-148.7250964 279.69912785 -148.7278772 277.59921061 -148.73609543 275.49932098 C-148.74647915 272.64073185 -148.73853001 269.78277523 -148.7257843 266.92420959 C-148.73315859 266.08608563 -148.74053287 265.24796167 -148.74813062 264.38444 C-148.6948483 258.73484055 -148.6948483 258.73484055 -146.99661416 256.5875501 C-144.53146762 254.65929833 -142.53136818 254.94543398 -139.44140625 254.97265625 C-137.70987305 254.98039062 -137.70987305 254.98039062 -135.94335938 254.98828125 C-134.73744141 255.00890625 -133.53152344 255.02953125 -132.2890625 255.05078125 C-131.07927734 255.0559375 -129.86949219 255.06109375 -128.62304688 255.06640625 C-119.65998951 255.14656775 -119.65998951 255.14656775 -117.3515625 256.30078125 C-117.33174316 256.96609863 -117.31192383 257.63141602 -117.29150391 258.31689453 C-117.19579832 261.35356393 -117.08630442 264.38958803 -116.9765625 267.42578125 C-116.945625 268.4725 -116.9146875 269.51921875 -116.8828125 270.59765625 C-116.68391617 275.83525955 -116.43487875 280.40583494 -114.3515625 285.30078125 C-108.47782043 284.94658575 -105.3072284 283.20403632 -101.1015625 279.30078125 C-99.96309882 278.28939655 -98.82376249 277.27899338 -97.68359375 276.26953125 C-96.84175537 275.51349609 -96.84175537 275.51349609 -95.98291016 274.7421875 C-93.64940223 272.68037505 -91.22163083 270.74401962 -88.7890625 268.80078125 C-84.31003643 265.16035367 -80.06301466 261.32988815 -75.8449707 257.39550781 C-72.4999047 254.29469854 -69.04621802 251.39489703 -65.4765625 248.55078125 C-57.96900184 242.53252136 -57.96900184 242.53252136 -53.3515625 234.30078125 C-55.20578946 228.07839125 -59.33472254 223.89308879 -64.1015625 219.73828125 C-64.72264893 219.18035889 -65.34373535 218.62243652 -65.98364258 218.04760742 C-67.76312097 216.45380566 -69.55580767 214.87618843 -71.3515625 213.30078125 C-72.20621094 212.53507813 -73.06085938 211.769375 -73.94140625 210.98046875 C-76.67837937 208.5442059 -79.29694835 206.33719068 -82.3515625 204.30078125 C-82.3515625 203.64078125 -82.3515625 202.98078125 -82.3515625 202.30078125 C-82.87363281 202.08808594 -83.39570313 201.87539062 -83.93359375 201.65625 C-87.3548658 199.7383479 -90.10466903 197.19864299 -93.0390625 194.61328125 C-94.29200295 193.5301318 -95.54590871 192.44809796 -96.80078125 191.3671875 C-98.88880846 189.56487284 -100.97477108 187.76030744 -103.05859375 185.953125 C-107.44893279 182.2551857 -107.44893279 182.2551857 -112.9140625 180.86328125 C-114.120625 181.07984375 -114.120625 181.07984375 -115.3515625 181.30078125 C-116.78936143 188.19271002 -116.69319358 195.23005422 -116.86914062 202.2421875 C-116.90330078 203.24636719 -116.93746094 204.25054687 -116.97265625 205.28515625 C-116.9977124 206.20006836 -117.02276855 207.11498047 -117.04858398 208.05761719 C-117.3515625 210.30078125 -117.3515625 210.30078125 -119.3515625 212.30078125 C-122.02539063 212.55957031 -122.02539063 212.55957031 -125.3828125 212.56640625 C-126.58550781 212.56898438 -127.78820312 212.5715625 -129.02734375 212.57421875 C-130.92033203 212.56261719 -130.92033203 212.56261719 -132.8515625 212.55078125 C-134.11355469 212.55851563 -135.37554687 212.56625 -136.67578125 212.57421875 C-137.87847656 212.57164062 -139.08117187 212.5690625 -140.3203125 212.56640625 C-141.42826172 212.56415039 -142.53621094 212.56189453 -143.67773438 212.55957031 C-146.3515625 212.30078125 -146.3515625 212.30078125 -148.3515625 210.30078125 C-148.51653484 207.58957316 -148.54840744 204.98367131 -148.49609375 202.2734375 C-148.48737747 201.40533951 -148.47866119 200.53724152 -148.46968079 199.64283752 C-148.44899996 197.65322356 -148.42397659 195.66365194 -148.39556885 193.6741333 C-148.34777516 190.01045912 -148.32153456 186.34701622 -148.29833984 182.68310547 C-148.25658847 176.26760484 -148.19326612 169.8525656 -148.1158123 163.43739891 C-148.0711493 159.71194817 -148.031756 155.98661346 -148.00512695 152.26098633 C-147.67252226 107.04961428 -137.87285296 69.82048129 -105.38598633 37.00537109 C-101.631046 33.31555799 -97.70217423 30.26560168 -93.3515625 27.30078125 C-92.6915625 27.63078125 -92.0315625 27.96078125 -91.3515625 28.30078125 C-92.00640625 28.81125 -92.66125 29.32171875 -93.3359375 29.84765625 C-122.78603048 53.30789981 -140.40796275 84.38191306 -144.74462891 121.96533203 C-146.19751158 137.22450062 -145.93204899 152.65090863 -146.02111816 167.96502686 C-146.05136037 172.63888759 -146.09773519 177.31258871 -146.14257812 181.98632812 C-146.22764492 191.09107869 -146.29390993 200.19581581 -146.3515625 209.30078125 C-137.7715625 209.30078125 -129.1915625 209.30078125 -120.3515625 209.30078125 C-120.50938342 200.96882984 -120.50938342 200.96882984 -120.71191406 192.63793945 C-120.72689941 191.07305786 -120.72689941 191.07305786 -120.7421875 189.4765625 C-120.76313477 188.41348877 -120.78408203 187.35041504 -120.80566406 186.25512695 C-120.23537163 182.54485346 -119.00314373 180.91672928 -116.3515625 178.30078125 C-112.8361924 177.43735702 -111.67720302 177.24794028 -108.3515625 178.30078125 C-104.33697942 180.92316213 -100.87455753 184.05903372 -97.3515625 187.30078125 C-96.51367188 188.05488281 -95.67578125 188.80898437 -94.8125 189.5859375 C-93.15913288 191.07396791 -91.51075322 192.56755701 -89.8671875 194.06640625 C-87.33825955 196.31259691 -84.74106336 198.43609343 -82.1015625 200.55078125 C-76.97369977 204.69671282 -72.15421168 209.1119742 -67.35498047 213.62817383 C-64.2107604 216.58587237 -61.03343496 219.46100103 -57.7265625 222.23828125 C-54.60441843 224.9709966 -52.17131322 227.50304063 -50.3515625 231.30078125 C-50.3515625 236.76208462 -51.81063879 239.29959882 -55.3515625 243.30078125 C-57.00084806 244.74156718 -58.69142597 246.13604963 -60.4140625 247.48828125 C-64.35210248 250.64185111 -68.14332877 253.87984253 -71.8515625 257.30078125 C-76.27309728 261.37110192 -80.84638658 265.17527238 -85.52734375 268.94140625 C-88.61632522 271.52196615 -91.54257861 274.23531556 -94.4765625 276.98828125 C-105.76832901 287.47388121 -105.76832901 287.47388121 -112.6015625 289.05078125 C-115.7358139 288.19598541 -117.29439305 286.9478009 -119.31298828 284.41796875 C-121.576682 279.8033115 -120.84655431 274.43929951 -120.6640625 269.42578125 C-120.5609375 265.42453125 -120.4578125 261.42328125 -120.3515625 257.30078125 C-128.9315625 257.30078125 -137.5115625 257.30078125 -146.3515625 257.30078125 C-146.3515625 329.24078125 -146.3515625 401.18078125 -146.3515625 475.30078125 C-128.5315625 475.30078125 -110.7115625 475.30078125 -92.3515625 475.30078125 C-91.6915625 471.01078125 -91.0315625 466.72078125 -90.3515625 462.30078125 C-88.88215618 458.54291063 -87.38746736 455.07818492 -85.6015625 451.48828125 C-84.61159523 449.414184 -83.62479001 447.33857547 -82.640625 445.26171875 C-82.11243164 444.1540918 -81.58423828 443.04646484 -81.04003906 441.90527344 C-78.21990277 435.88495936 -75.55205159 429.79886663 -72.89147949 423.70669556 C-72.00178507 421.67099281 -71.10711442 419.63753428 -70.21191406 417.60424805 C-65.045302 405.82625731 -60.39161275 394.14204028 -57.1640625 381.67578125 C-54.42719444 371.53025722 -51.0698775 361.75515269 -47.34960938 351.93286133 C-44.09440778 343.33345605 -40.9453257 334.70461105 -37.91906738 326.02224731 C-37.41867293 324.59134976 -36.91424108 323.16185726 -36.40563965 321.7338562 C-35.6962192 319.74009867 -35.00068484 317.74201562 -34.30859375 315.7421875 C-33.90616455 314.59435791 -33.50373535 313.44652832 -33.08911133 312.26391602 C-31.89881179 307.48183541 -33.48936179 304.82328621 -35.7265625 300.61328125 C-40.31381269 291.6111342 -42.45857232 283.22806197 -42.51953125 273.0859375 C-42.52376602 272.4017424 -42.52800079 271.7175473 -42.53236389 271.01261902 C-42.54223479 268.79611042 -42.54228506 266.57980793 -42.5390625 264.36328125 C-42.53845825 263.60567505 -42.537854 262.84806885 -42.53723145 262.06750488 C-42.4777984 234.60508789 -41.79624938 207.6620021 -21.234375 186.9609375 C-8.39211609 175.11056037 7.1148411 170.72632782 24.25 171.0234375 C34.47270585 171.4683842 43.38623507 175.46025884 51.6484375 181.30078125 C52.33421875 181.76742187 53.02 182.2340625 53.7265625 182.71484375 C65.21512088 191.53479999 70.01320616 206.32420185 75.0625 219.30126953 C82.8986365 239.3266137 95.08460391 251.77998944 111.80761719 264.85644531 C114.34420354 266.84668999 116.8419091 268.88256848 119.3359375 270.92578125 C120.1815625 271.61800781 121.0271875 272.31023437 121.8984375 273.0234375 C127.1871957 277.40319038 132.4178406 281.85186338 137.6484375 286.30078125 C141.57726827 284.67861485 144.40797506 281.9840562 147.4609375 279.11328125 C148.26422485 278.36256348 148.26422485 278.36256348 149.08374023 277.59667969 C150.14196262 276.60466634 151.19810548 275.61042908 152.25195312 274.61376953 C153.35487195 273.57679446 154.47520588 272.55834324 155.6015625 271.546875 C171.0583407 257.1780739 180.46330967 237.11267102 186.6484375 217.30078125 C187.02742188 216.16125 187.40640625 215.02171875 187.796875 213.84765625 C197.09169749 183.23763933 197.29750315 143.50580862 190.6484375 112.30078125 C190.37778627 110.85177125 190.10825605 109.40255141 189.83984375 107.953125 C183.12286634 73.9907931 161.5550811 44.27092933 133.2265625 24.984375 C111.71480711 10.93654686 85.52795149 2.09748617 59.65283203 2.17138672 C58.88598083 2.1696344 58.11912964 2.16788208 57.32904053 2.16607666 C54.81308681 2.16170284 52.29720434 2.16458091 49.78125 2.16796875 C48.01919542 2.16729429 46.25714093 2.16632308 44.49508667 2.16506958 C40.8084016 2.16359854 37.12174083 2.16572755 33.43505859 2.17041016 C28.72903565 2.17609867 24.02306986 2.17283022 19.31704903 2.16683769 C15.67946957 2.16320887 12.04190346 2.16438145 8.40432358 2.16696548 C6.67012398 2.16762878 4.93592315 2.16682741 3.20172501 2.16448593 C0.76872847 2.16192208 -1.66417806 2.16585243 -4.09716797 2.17138672 C-4.80187225 2.16936249 -5.50657654 2.16733826 -6.2326355 2.16525269 C-12.33427965 2.19072776 -18.53241406 2.3610651 -24.3515625 4.30078125 C-26.08480369 4.21616633 -27.81549062 4.0647377 -29.5390625 3.86328125 C-30.44011719 3.76144531 -31.34117187 3.65960938 -32.26953125 3.5546875 C-32.95660156 3.47089844 -33.64367187 3.38710938 -34.3515625 3.30078125 C-34.3515625 2.97078125 -34.3515625 2.64078125 -34.3515625 2.30078125 C-22.85202664 0.20899823 -11.65008642 -0.00982761 0 0 Z " fill="#090909" transform="translate(298.3515625,-0.30078125)"/>
<path d="M0 0 C32.34 0 64.68 0 98 0 C99.77384392 4.43460979 100.25080214 6.3185108 100.2561264 10.84972572 C100.2623585 12.02738459 100.26859059 13.20504346 100.27501154 14.41838896 C100.27171257 15.70832994 100.26841359 16.99827092 100.26501465 18.32730103 C100.2685859 19.71480818 100.27303672 21.10231331 100.27829123 22.48981512 C100.29021895 26.30295075 100.28977237 30.11600052 100.28735614 33.92915034 C100.28693684 38.04278791 100.2980341 42.15639584 100.30781555 46.27001953 C100.32328187 53.40334851 100.33168307 60.5366577 100.33552551 67.67000198 C100.3412804 78.01302965 100.35988239 88.35600437 100.38196605 98.69900863 C100.41771054 115.51856868 100.44600512 132.33813176 100.46826172 149.15771484 C100.46959671 150.16461398 100.4709317 151.17151311 100.47230715 152.20892434 C100.48172486 159.34761599 100.490883 166.48630796 100.5 173.625 C100.51038043 181.74137397 100.52090548 189.85774772 100.53173828 197.97412109 C100.53306902 198.97312009 100.53439977 199.97211908 100.53577083 201.00139077 C100.55829712 217.73152803 100.58854515 234.46164312 100.62413073 251.19175756 C100.64566387 261.48966707 100.66037922 271.78754201 100.66596949 282.08547275 C100.67025692 289.16725144 100.68159844 296.24899736 100.69819343 303.33075781 C100.70748526 307.40088963 100.71375612 311.47096034 100.71113014 315.54110336 C100.70371938 330.36074515 100.80993884 345.15412927 101.76794434 359.94979858 C101.82855246 361.01441869 101.88916059 362.0790388 101.95160532 363.17592013 C102.62119861 372.02921611 104.60791807 379.85560341 110 387 C110 387.66 110 388.32 110 389 C110.66 389 111.32 389 112 389 C114.1875 391 114.1875 391 115.50367737 392.42744446 C116.98557841 394.04833576 116.98557841 394.04833576 118.77940369 395.46549988 C123.43898524 399.73737571 124.51471793 403.18416351 124.82641602 409.4699707 C124.8643082 412.4575255 124.81439167 415.43882714 124.75390625 418.42578125 C124.74591409 420.02140676 124.74074652 421.61704867 124.73826599 423.21269226 C124.72607209 426.54252096 124.69124936 429.87101871 124.63793945 433.20043945 C124.56980763 437.4688423 124.54107698 441.73631009 124.52694798 446.00520039 C124.51183385 450.08301788 124.47741895 454.1606037 124.44140625 458.23828125 C124.43349154 459.40397864 124.43349154 459.40397864 124.42541695 460.59322548 C124.40698028 462.78811617 124.37483538 464.98234995 124.33813477 467.17700195 C124.31312645 469.04942314 124.31312645 469.04942314 124.28761292 470.95967102 C124 474 124 474 122 477 C119.25778592 477.91407136 117.62331092 478.13074113 114.79833984 478.14526367 C113.52958511 478.15483345 113.52958511 478.15483345 112.23519897 478.16459656 C110.86193954 478.16626579 110.86193954 478.16626579 109.4609375 478.16796875 C108.50667877 478.17129715 107.55242004 478.17462555 106.56924438 478.17805481 C104.53998292 478.1831244 102.5107131 478.18546313 100.48144531 478.18530273 C97.43539777 478.18745728 94.38973187 478.20552241 91.34375 478.22460938 C61.50930344 478.31449009 61.50930344 478.31449009 47.5625 473.3125 C46.81154053 473.04977295 46.06058105 472.7870459 45.28686523 472.51635742 C39.09630483 470.24154926 33.96437638 467.38928678 29 463 C28.08863281 462.19691406 27.17726563 461.39382813 26.23828125 460.56640625 C9.77197316 445.08852593 0.5526366 422.99806666 -0.35822296 400.52750778 C-0.52485298 393.449978 -0.50629314 386.37310267 -0.46426249 379.29429293 C-0.44676942 375.58905559 -0.4528494 371.8838407 -0.45587158 368.17857361 C-0.45795533 361.77981176 -0.44554964 355.38121475 -0.42292023 348.98249435 C-0.3902247 339.73137904 -0.3799754 330.48034234 -0.37496826 321.22917552 C-0.36624292 306.21491314 -0.33970284 291.20073835 -0.30175781 276.18652344 C-0.26496586 261.61328566 -0.2366894 247.0400718 -0.21972656 232.46679688 C-0.21867567 231.56646624 -0.21762477 230.6661356 -0.21654204 229.73852222 C-0.21132138 225.2212202 -0.20626667 220.70391801 -0.20129442 216.18661571 C-0.1599185 178.79101533 -0.08954596 141.39551453 0 104 C0.33 104 0.66 104 1 104 C1.00135653 104.62101093 1.00271306 105.24202187 1.00411069 105.88185132 C1.08483997 142.72494575 1.17582688 179.56800167 1.28005161 216.41103739 C1.2925698 220.83929165 1.30500268 225.26754614 1.31738281 229.69580078 C1.31984881 230.57735041 1.3223148 231.45890003 1.32485552 232.36716329 C1.36453029 246.62285248 1.39730096 260.87854956 1.42749982 275.13426162 C1.45866353 289.77253345 1.49729381 304.41077198 1.54279006 319.04900634 C1.57060823 328.07447521 1.59267003 337.09991986 1.60726251 346.12541996 C1.61784143 352.32272046 1.63570247 358.51997393 1.65916704 364.71723892 C1.67247385 368.28750625 1.68268789 371.85770796 1.68421364 375.4280014 C1.68595798 379.31177522 1.70309812 383.19539988 1.7215271 387.07913208 C1.71959237 388.190073 1.71765763 389.30101391 1.71566427 390.4456197 C1.88927072 415.0712218 9.02751498 438.41949529 26.30859375 456.40234375 C36.34406617 466.05245403 47.72197086 469.97874483 61 473 C62.170149 473.26755348 62.170149 473.26755348 63.36393738 473.54051208 C66.14063221 474.02451338 68.70710385 474.12012388 71.5246582 474.11352539 C72.60540115 474.11344986 73.6861441 474.11337433 74.79963684 474.11329651 C75.9550145 474.10813522 77.11039215 474.10297394 78.30078125 474.09765625 C79.49229294 474.0962413 80.68380463 474.09482635 81.91142273 474.09336853 C85.71180751 474.08777728 89.51213307 474.07522632 93.3125 474.0625 C95.89127519 474.05748387 98.4700513 474.05292116 101.04882812 474.04882812 C107.36590557 474.03781071 113.68294855 474.02108122 120 474 C120.27923253 464.67256779 120.49184014 455.34659365 120.62174606 446.01587963 C120.68412888 441.68200787 120.76857683 437.35101399 120.90527344 433.01879883 C121.03660612 428.82989543 121.10759513 424.64374071 121.13852692 420.45293617 C121.16053752 418.86229496 121.20352594 417.27178836 121.26876068 415.68233299 C121.74167256 405.96709309 121.74167256 405.96709309 117.35412598 397.61636353 C114.44416731 394.78543832 111.2551626 392.41771776 108 390 C96.67214463 378.30365157 97.85090191 359.28507571 97.84851074 344.21348572 C97.84465322 342.74111221 97.8403644 341.26873978 97.83568525 339.79636866 C97.82412883 335.77752472 97.81858116 331.75869207 97.81405044 327.7398349 C97.80806956 323.39570107 97.79641025 319.05158201 97.78541565 314.7074585 C97.76711541 307.18949208 97.75225065 299.6715253 97.73963928 292.15354729 C97.72130988 281.28176056 97.69664756 270.40999508 97.67026538 259.53822524 C97.62752917 241.89471233 97.58839707 224.2511936 97.55224609 206.60766602 C97.54900189 205.02528136 97.54900189 205.02528136 97.54569215 203.41092933 C97.52816171 194.84660851 97.51080855 186.28228733 97.49348927 177.71796608 C97.47832067 170.21830861 97.46309003 162.71865127 97.44775391 155.21899414 C97.4445156 153.63445014 97.4445156 153.63445014 97.44121188 152.01789515 C97.4051434 134.42775561 97.36519983 116.83762694 97.32245111 99.24750239 C97.29626811 88.3963603 97.27361572 77.54522157 97.25546753 66.69406302 C97.24283018 59.2700605 97.22671537 51.84607091 97.20781839 44.4220817 C97.19703156 40.13426783 97.18792318 35.84646654 97.18312263 31.55864143 C97.1787093 27.63914454 97.16978827 23.71968558 97.15717942 19.80020673 C97.15342481 18.3772289 97.15138155 16.95424539 97.15115923 15.53126263 C97.15062273 13.60734701 97.14344669 11.68343657 97.13587189 9.75953579 C97.13375592 8.68785229 97.13163995 7.61616879 97.12945986 6.51201004 C97.16830164 4.00278125 97.16830164 4.00278125 96 2 C64.32 1.67 32.64 1.34 0 1 C0 0.67 0 0.34 0 0 Z " fill="#050505" transform="translate(0,0)"/>
<path d="M0 0 C4.9797267 0.55075318 8.92418782 2.20562545 13.3125 4.5 C14.00690186 4.85457275 14.70130371 5.20914551 15.41674805 5.57446289 C21.11510542 8.49809023 26.75593378 11.53048841 32.40014648 14.55688477 C38.78088404 17.94827644 45.2892592 21.04465952 51.8449707 24.08178711 C52.60511475 24.4350708 53.36525879 24.78835449 54.1484375 25.15234375 C55.15656494 25.6162854 55.15656494 25.6162854 56.18505859 26.08959961 C58 27 58 27 61 29 C61.1875 31.625 61.1875 31.625 61 34 C25.38229211 48.67449565 25.38229211 48.67449565 14 44 C11.45506259 41.93091065 9.28597707 39.72078298 7.08203125 37.29296875 C5.30779875 35.33898286 3.55928217 33.69911327 1.5 32.0625 C-1 30 -1 30 -2 28 C-2.02815415 26.14712788 -1.98822622 24.29300758 -1.9140625 22.44140625 C-1.84832031 20.77948242 -1.84832031 20.77948242 -1.78125 19.08398438 C-1.7296875 17.92189453 -1.678125 16.75980469 -1.625 15.5625 C-1.58117187 14.40427734 -1.53734375 13.24605469 -1.4921875 12.05273438 C-1.12973941 3.38921823 -1.12973941 3.38921823 0 0 Z " fill="#DDDDDD" transform="translate(349,273)"/>
<path d="M0 0 C0.66 0.33 1.32 0.66 2 1 C1.34515625 1.51046875 0.6903125 2.0209375 0.015625 2.546875 C-29.43446798 26.00711856 -47.05640025 57.08113181 -51.39306641 94.66455078 C-52.84594908 109.92371937 -52.58048649 125.35012738 -52.66955566 140.66424561 C-52.69979787 145.33810634 -52.74617269 150.01180746 -52.79101562 154.68554688 C-52.87608242 163.79029744 -52.94234743 172.89503456 -53 182 C-44.42 182 -35.84 182 -27 182 C-27.15782092 173.66804859 -27.15782092 173.66804859 -27.36035156 165.3371582 C-27.37533691 163.77227661 -27.37533691 163.77227661 -27.390625 162.17578125 C-27.41157227 161.11270752 -27.43251953 160.04963379 -27.45410156 158.9543457 C-26.88380913 155.24407221 -25.65158123 153.61594803 -23 151 C-19.4846299 150.13657577 -18.32564052 149.94715903 -15 151 C-10.98541692 153.62238088 -7.52299503 156.75825247 -4 160 C-3.16210938 160.75410156 -2.32421875 161.50820312 -1.4609375 162.28515625 C0.19242962 163.77318666 1.84080928 165.26677576 3.484375 166.765625 C6.01330295 169.01181566 8.61049914 171.13531218 11.25 173.25 C16.37786273 177.39593157 21.19735082 181.81119295 25.99658203 186.32739258 C29.1408021 189.28509112 32.31812754 192.16021978 35.625 194.9375 C38.74714407 197.67021535 41.18024928 200.20225938 43 204 C43 209.46130337 41.54092371 211.99881757 38 216 C36.35071444 217.44078593 34.66013653 218.83526838 32.9375 220.1875 C28.99946002 223.34106986 25.20823373 226.57906128 21.5 230 C17.07846522 234.07032067 12.50517592 237.87449113 7.82421875 241.640625 C4.73523728 244.2211849 1.80898389 246.93453431 -1.125 249.6875 C-12.41676651 260.17309996 -12.41676651 260.17309996 -19.25 261.75 C-22.3842514 260.89520416 -23.94283055 259.64701965 -25.96142578 257.1171875 C-28.2251195 252.50253025 -27.49499181 247.13851826 -27.3125 242.125 C-27.209375 238.12375 -27.10625 234.1225 -27 230 C-35.58 230 -44.16 230 -53 230 C-52.67 301.94 -52.34 373.88 -52 448 C-33.85 448.33 -15.7 448.66 3 449 C2.67 449.66 2.34 450.32 2 451 C-5.79619588 451.05057624 -13.5923497 451.08568114 -21.38867188 451.10986328 C-24.04265931 451.11994089 -26.6966356 451.13360313 -29.35058594 451.15087891 C-33.15823107 451.17504992 -36.96572984 451.18646535 -40.7734375 451.1953125 C-42.56254044 451.21079636 -42.56254044 451.21079636 -44.38778687 451.22659302 C-46.03927231 451.22681961 -46.03927231 451.22681961 -47.72412109 451.22705078 C-48.69674896 451.231492 -49.66937683 451.23593323 -50.67147827 451.24050903 C-53 451 -53 451 -55 449 C-55.20008418 446.13620041 -55.27358208 443.36875885 -55.26069641 440.5035553 C-55.26452196 439.61374873 -55.26834751 438.72394216 -55.27228898 437.80717176 C-55.28265725 434.80766808 -55.2786196 431.80835445 -55.2746582 428.80883789 C-55.27900256 426.66565269 -55.28418478 424.52246904 -55.29014587 422.37928772 C-55.30357682 416.54466265 -55.30411 410.7101022 -55.30158257 404.87546468 C-55.30051563 400.01185437 -55.30538911 395.14825728 -55.310188 390.28464979 C-55.32129734 378.8145124 -55.32171257 367.34440775 -55.31567383 355.87426758 C-55.30963159 344.02498258 -55.3219482 332.17581625 -55.3432439 320.3265515 C-55.36083297 310.16772962 -55.36686552 300.0089456 -55.36360615 289.85010904 C-55.36178885 283.77629685 -55.36447387 277.7025693 -55.37832069 271.62877083 C-55.39085066 265.91853467 -55.3890009 260.20848411 -55.37590981 254.49825096 C-55.3735339 252.3983466 -55.3763147 250.29842936 -55.38453293 248.19853973 C-55.39491665 245.3399506 -55.38696751 242.48199398 -55.3742218 239.62342834 C-55.38159609 238.78530438 -55.38897037 237.94718042 -55.39656812 237.08365875 C-55.3432858 231.4340593 -55.3432858 231.4340593 -53.64505166 229.28676885 C-51.17990512 227.35851708 -49.17980568 227.64465273 -46.08984375 227.671875 C-44.35831055 227.67960937 -44.35831055 227.67960937 -42.59179688 227.6875 C-41.38587891 227.708125 -40.17996094 227.72875 -38.9375 227.75 C-37.72771484 227.75515625 -36.51792969 227.7603125 -35.27148438 227.765625 C-26.30842701 227.8457865 -26.30842701 227.8457865 -24 229 C-23.98018066 229.66531738 -23.96036133 230.33063477 -23.93994141 231.01611328 C-23.84423582 234.05278268 -23.73474192 237.08880678 -23.625 240.125 C-23.5940625 241.17171875 -23.563125 242.2184375 -23.53125 243.296875 C-23.33235367 248.5344783 -23.08331625 253.10505369 -21 258 C-15.12625793 257.6458045 -11.9556659 255.90325507 -7.75 252 C-6.61153632 250.9886153 -5.47219999 249.97821213 -4.33203125 248.96875 C-3.49019287 248.21271484 -3.49019287 248.21271484 -2.63134766 247.44140625 C-0.29783973 245.3795938 2.12993167 243.44323837 4.5625 241.5 C9.04152607 237.85957242 13.28854784 234.0291069 17.5065918 230.09472656 C20.8516578 226.99391729 24.30534448 224.09411578 27.875 221.25 C35.38256066 215.23174011 35.38256066 215.23174011 40 207 C38.14577304 200.77761 34.01683996 196.59230754 29.25 192.4375 C28.62891357 191.87957764 28.00782715 191.32165527 27.36791992 190.74682617 C25.58844153 189.15302441 23.79575483 187.57540718 22 186 C21.14535156 185.23429688 20.29070312 184.46859375 19.41015625 183.6796875 C16.67318313 181.24342465 14.05461415 179.03640943 11 177 C11 176.34 11 175.68 11 175 C10.47792969 174.78730469 9.95585937 174.57460937 9.41796875 174.35546875 C5.9966967 172.43756665 3.24689347 169.89786174 0.3125 167.3125 C-0.94044045 166.22935055 -2.19434621 165.14731671 -3.44921875 164.06640625 C-5.53724596 162.26409159 -7.62320858 160.45952619 -9.70703125 158.65234375 C-14.09737029 154.95440445 -14.09737029 154.95440445 -19.5625 153.5625 C-20.7690625 153.7790625 -20.7690625 153.7790625 -22 154 C-23.43779893 160.89192877 -23.34163108 167.92927297 -23.51757812 174.94140625 C-23.55173828 175.94558594 -23.58589844 176.94976562 -23.62109375 177.984375 C-23.6461499 178.89928711 -23.67120605 179.81419922 -23.69702148 180.75683594 C-24 183 -24 183 -26 185 C-28.67382813 185.25878906 -28.67382813 185.25878906 -32.03125 185.265625 C-33.23394531 185.26820313 -34.43664062 185.27078125 -35.67578125 185.2734375 C-37.56876953 185.26183594 -37.56876953 185.26183594 -39.5 185.25 C-40.76199219 185.25773438 -42.02398437 185.26546875 -43.32421875 185.2734375 C-44.52691406 185.27085937 -45.72960937 185.26828125 -46.96875 185.265625 C-48.07669922 185.26336914 -49.18464844 185.26111328 -50.32617188 185.25878906 C-53 185 -53 185 -55 183 C-55.16497234 180.28879191 -55.19684494 177.68289006 -55.14453125 174.97265625 C-55.13581497 174.10455826 -55.12709869 173.23646027 -55.11811829 172.34205627 C-55.09743746 170.35244231 -55.07241409 168.36287069 -55.04400635 166.37335205 C-54.99621266 162.70967787 -54.96997206 159.04623497 -54.94677734 155.38232422 C-54.90502597 148.96682359 -54.84170362 142.55178435 -54.7642498 136.13661766 C-54.7195868 132.41116692 -54.6801935 128.68583221 -54.65356445 124.96020508 C-54.32095976 79.74883303 -44.52129046 42.51970004 -12.03442383 9.70458984 C-8.2794835 6.01477674 -4.35061173 2.96482043 0 0 Z " fill="#070707" transform="translate(205,27)"/>
<path d="M0 0 C4.41576253 0.5837155 7.87256565 3.16958355 11.5625 5.5 C12.27124268 5.94561279 12.97998535 6.39122559 13.71020508 6.8503418 C29.02734357 16.65088327 39.9378185 26.61522127 44.25 44.625 C44.53665527 45.77508545 44.82331055 46.9251709 45.11865234 48.11010742 C45.92045314 51.35240267 46.70732521 54.59752294 47.48449707 57.84576416 C48.02487119 60.10393423 48.56841464 62.36132668 49.11230469 64.61865234 C53.0321374 80.91075202 56.91243463 97.21523831 60.50439453 113.58325195 C61.23976164 116.89377719 62.01646785 120.04807921 63.1171875 123.26171875 C63.98499521 125.9534586 64.24016919 128.00188058 64.1875 130.8125 C64.18105469 131.58207031 64.17460937 132.35164062 64.16796875 133.14453125 C64 135 64 135 63 136 C60.6486933 136.1214891 58.3261969 136.17856862 55.97338867 136.19287109 C54.87090034 136.20513733 54.87090034 136.20513733 53.74613953 136.21765137 C51.30342434 136.24255042 48.86076746 136.25903325 46.41796875 136.2734375 C45.16912116 136.28142302 45.16912116 136.28142302 43.89504433 136.28956985 C39.48790023 136.31632178 35.08078466 136.33568959 30.67358398 136.35009766 C26.1167977 136.36674568 21.56073468 136.41151819 17.00422192 136.4624691 C13.50494032 136.49609851 10.00583119 136.50767036 6.50640297 136.51332474 C4.82662749 136.52004984 3.14686385 136.53530463 1.4672451 136.55921555 C-0.88417327 136.59077836 -3.23363117 136.59091829 -5.58520508 136.58349609 C-6.27990906 136.59990143 -6.97461304 136.61630676 -7.69036865 136.63320923 C-11.33662655 136.58607644 -12.73883674 136.25462997 -15.38920593 133.67056274 C-17 131 -17 131 -18.1875 127.6875 C-22.05943573 118.33032199 -33.16828041 113.18259094 -41.42578125 108.19921875 C-44.06936056 106.59967903 -46.57673394 104.924908 -49 103 C-48.30092815 99.0221827 -46.36389138 95.74098932 -44.4375 92.25 C-38.00589773 80.38207612 -32.0981332 68.28503976 -26.35791016 56.06958008 C-23.96174278 50.98403689 -21.48281279 45.94977933 -18.9375 40.9375 C-12.93581467 29.06099909 -7.5283644 16.92470142 -3.0078125 4.40625 C-2 2 -2 2 0 0 Z M1 2 C-1.09017587 6.66743865 -3.15406049 11.34429658 -5.1640625 16.046875 C-16.45514727 42.31198349 -28.83755954 68.24482276 -42.95703125 93.11352539 C-45.36216092 97.29151292 -45.36216092 97.29151292 -46 102 C-43.57072068 103.69687873 -41.17930889 105.20229779 -38.625 106.6875 C-26.83475707 113.82181468 -18.22617447 119.93456383 -13 133 C11.75 133 36.5 133 62 133 C58.62463039 118.65160084 58.62463039 118.65160084 55.1953125 104.31640625 C54.69200133 102.22543665 54.1887481 100.13445309 53.68554688 98.04345703 C52.89702469 94.76850219 52.10839756 91.4935727 51.31958008 88.21868896 C46.05418193 66.3479204 46.05418193 66.3479204 44.0234375 57.37890625 C43.62294189 55.61148071 43.62294189 55.61148071 43.21435547 53.80834961 C42.76222436 51.79353842 42.31527292 49.77755188 41.87548828 47.76000977 C37.39122552 27.6987373 28.64600745 19.01287229 11.83544922 8.15527344 C8.30337073 5.93210299 4.70520057 3.91876458 1 2 Z " fill="#09090A" transform="translate(310,342)"/>
<path d="M0 0 C0.33 0 0.66 0 1 0 C1.00135653 0.62101093 1.00271306 1.24202187 1.00411069 1.88185132 C1.08483997 38.72494575 1.17582688 75.56800167 1.28005161 112.41103739 C1.2925698 116.83929165 1.30500268 121.26754614 1.31738281 125.69580078 C1.31984881 126.57735041 1.3223148 127.45890003 1.32485552 128.36716329 C1.36453029 142.62285248 1.39730096 156.87854956 1.42749982 171.13426162 C1.45866353 185.77253345 1.49729381 200.41077198 1.54279006 215.04900634 C1.57060823 224.07447521 1.59267003 233.09991986 1.60726251 242.12541996 C1.61784143 248.32272046 1.63570247 254.51997393 1.65916704 260.71723892 C1.67247385 264.28750625 1.68268789 267.85770796 1.68421364 271.4280014 C1.68595798 275.31177522 1.70309812 279.19539988 1.7215271 283.07913208 C1.71959237 284.190073 1.71765763 285.30101391 1.71566427 286.4456197 C1.88927072 311.0712218 9.02751498 334.41949529 26.30859375 352.40234375 C36.34406617 362.05245403 47.72197086 365.97874483 61 369 C61.7744194 369.17647568 62.54883881 369.35295135 63.34672546 369.53477478 C66.20465882 370.03588488 68.89914905 370.16029721 71.80004883 370.20532227 C72.94085403 370.22526749 74.08165924 370.24521271 75.2570343 370.26576233 C76.47803329 370.28247482 77.69903229 370.29918732 78.95703125 370.31640625 C80.21513107 370.33718735 81.4732309 370.35796844 82.76945496 370.37937927 C86.10172286 370.43360465 89.43400239 370.48387945 92.76635742 370.53222656 C96.17176555 370.58261084 99.5770882 370.63820823 102.98242188 370.69335938 C109.65487967 370.80036699 116.32740174 370.90216524 123 371 C122.67 371.66 122.34 372.32 122 373 C119.25778592 373.91407136 117.62331092 374.13074113 114.79833984 374.14526367 C113.52958511 374.15483345 113.52958511 374.15483345 112.23519897 374.16459656 C110.86193954 374.16626579 110.86193954 374.16626579 109.4609375 374.16796875 C108.50667877 374.17129715 107.55242004 374.17462555 106.56924438 374.17805481 C104.53998292 374.1831244 102.5107131 374.18546313 100.48144531 374.18530273 C97.43539777 374.18745728 94.38973187 374.20552241 91.34375 374.22460938 C61.50930344 374.31449009 61.50930344 374.31449009 47.5625 369.3125 C46.81154053 369.04977295 46.06058105 368.7870459 45.28686523 368.51635742 C39.09630483 366.24154926 33.96437638 363.38928678 29 359 C28.08863281 358.19691406 27.17726563 357.39382813 26.23828125 356.56640625 C9.77197316 341.08852593 0.5526366 318.99806666 -0.35822296 296.52750778 C-0.52485298 289.449978 -0.50629314 282.37310267 -0.46426249 275.29429293 C-0.44676942 271.58905559 -0.4528494 267.8838407 -0.45587158 264.17857361 C-0.45795533 257.77981176 -0.44554964 251.38121475 -0.42292023 244.98249435 C-0.3902247 235.73137904 -0.3799754 226.48034234 -0.37496826 217.22917552 C-0.36624292 202.21491314 -0.33970284 187.20073835 -0.30175781 172.18652344 C-0.26496586 157.61328566 -0.2366894 143.0400718 -0.21972656 128.46679688 C-0.21867567 127.56646624 -0.21762477 126.6661356 -0.21654204 125.73852222 C-0.21132138 121.2212202 -0.20626667 116.70391801 -0.20129442 112.18661571 C-0.1599185 74.79101533 -0.08954596 37.39551453 0 0 Z " fill="#3F3E3E" transform="translate(0,104)"/>
<path d="M0 0 C9.77019006 8.88743169 16.37892958 22.10629225 17.5390625 35.3046875 C17.59509221 51.21712475 13.60465399 63.99640446 2.5546875 75.62890625 C-7.46668656 85.3798891 -19.57686079 90.65347929 -33.57421875 91.1953125 C-49.0499968 90.80659594 -61.10349428 84.79224091 -71.76171875 73.8828125 C-77.90740409 67.37842957 -81.01804981 60.35190629 -83.76171875 51.8828125 C-83.96667969 51.25375 -84.17164063 50.6246875 -84.3828125 49.9765625 C-86.89722422 36.08249359 -84.05244477 22.80602541 -76.76171875 10.8828125 C-67.78733507 -0.9116178 -56.13708104 -9.39965962 -41.28515625 -11.8359375 C-25.86968695 -13.5540703 -12.34128809 -9.46107234 0 0 Z M-70.76171875 6.8828125 C-80.91620852 18.62867753 -83.83079203 31.72912292 -82.76171875 46.8828125 C-81.12289635 57.30792644 -76.12890173 67.31098555 -68.76171875 74.8828125 C-68.10171875 74.8828125 -67.44171875 74.8828125 -66.76171875 74.8828125 C-66.76171875 75.5428125 -66.76171875 76.2028125 -66.76171875 76.8828125 C-54.33454286 86.4435741 -42.63245875 90.35839783 -26.76171875 88.8828125 C-13.19303654 86.09102612 -1.51444987 79.57315812 7.0625 68.53515625 C14.80443992 56.54197476 17.16393618 43.16018431 14.54296875 29.171875 C11.25665041 16.44084345 4.96060701 5.97755706 -5.953125 -1.6484375 C-8.17863508 -2.95428241 -10.40645223 -4.06392475 -12.76171875 -5.1171875 C-13.60476563 -5.49746094 -14.4478125 -5.87773438 -15.31640625 -6.26953125 C-35.71260336 -14.57580862 -55.82843398 -8.41725471 -70.76171875 6.8828125 Z " fill="#0A0B0B" transform="translate(365.76171875,63.1171875)"/>
<path d="M0 0 C1.7315332 0.00773438 1.7315332 0.00773438 3.49804688 0.015625 C4.70396484 0.03625 5.90988281 0.056875 7.15234375 0.078125 C8.36212891 0.08328125 9.57191406 0.0884375 10.81835938 0.09375 C19.78141674 0.1739115 19.78141674 0.1739115 22.08984375 1.328125 C21.75984375 9.908125 21.42984375 18.488125 21.08984375 27.328125 C20.42984375 27.328125 19.76984375 27.328125 19.08984375 27.328125 C19.08984375 19.078125 19.08984375 10.828125 19.08984375 2.328125 C10.50984375 2.328125 1.92984375 2.328125 -6.91015625 2.328125 C-6.58015625 74.268125 -6.25015625 146.208125 -5.91015625 220.328125 C12.23984375 220.658125 30.38984375 220.988125 49.08984375 221.328125 C48.75984375 221.988125 48.42984375 222.648125 48.08984375 223.328125 C40.29364787 223.37870124 32.49749405 223.41380614 24.70117188 223.43798828 C22.04718444 223.44806589 19.39320815 223.46172813 16.73925781 223.47900391 C12.93161268 223.50317492 9.12411391 223.51459035 5.31640625 223.5234375 C3.52730331 223.53892136 3.52730331 223.53892136 1.70205688 223.55471802 C0.05057144 223.55494461 0.05057144 223.55494461 -1.63427734 223.55517578 C-3.09321915 223.56183762 -3.09321915 223.56183762 -4.58163452 223.56863403 C-6.91015625 223.328125 -6.91015625 223.328125 -8.91015625 221.328125 C-9.11024043 218.46432541 -9.18373833 215.69688385 -9.17085266 212.8316803 C-9.17467821 211.94187373 -9.17850376 211.05206716 -9.18244523 210.13529676 C-9.1928135 207.13579308 -9.18877585 204.13647945 -9.18481445 201.13696289 C-9.18915881 198.99377769 -9.19434103 196.85059404 -9.20030212 194.70741272 C-9.21373307 188.87278765 -9.21426625 183.0382272 -9.21173882 177.20358968 C-9.21067188 172.33997937 -9.21554536 167.47638228 -9.22034425 162.61277479 C-9.23145359 151.1426374 -9.23186882 139.67253275 -9.22583008 128.20239258 C-9.21978784 116.35310758 -9.23210445 104.50394125 -9.25340015 92.6546765 C-9.27098922 82.49585462 -9.27702177 72.3370706 -9.2737624 62.17823404 C-9.2719451 56.10442185 -9.27463012 50.0306943 -9.28847694 43.95689583 C-9.30100691 38.24665967 -9.29915715 32.53660911 -9.28606606 26.82637596 C-9.28369015 24.7264716 -9.28647095 22.62655436 -9.29468918 20.52666473 C-9.3050729 17.6680756 -9.29712376 14.81011898 -9.28437805 11.95155334 C-9.29175234 11.11342938 -9.29912662 10.27530542 -9.30672437 9.41178375 C-9.25344205 3.7621843 -9.25344205 3.7621843 -7.55520791 1.61489385 C-5.09006137 -0.31335792 -3.08996193 -0.02722227 0 0 Z " fill="#000000" transform="translate(158.91015625,254.671875)"/>
<path d="M0 0 C0.99 0 1.98 0 3 0 C4.56447619 6.54119563 6.12665741 13.08293641 7.6875 19.625 C7.91687256 20.58595581 8.14624512 21.54691162 8.38256836 22.5369873 C11.18120405 34.26791063 13.97581357 45.99785187 16.5534668 57.77978516 C17.27144389 61.02152922 18.03409206 64.09940528 19.11328125 67.24609375 C19.98231098 69.94506272 20.24029649 71.99508757 20.1875 74.8125 C20.18105469 75.58207031 20.17460937 76.35164063 20.16796875 77.14453125 C20 79 20 79 19 80 C16.88318683 80.0942174 14.76319242 80.11742761 12.64428711 80.11352539 C11.98089828 80.11367142 11.31750946 80.11381744 10.63401794 80.1139679 C8.43176044 80.11326881 6.22958655 80.10547665 4.02734375 80.09765625 C2.50419664 80.09579206 0.98104893 80.09436816 -0.542099 80.09336853 C-4.55837651 80.08954346 -8.57461808 80.07971328 -12.59088135 80.06866455 C-16.68623366 80.05845019 -20.78159176 80.05387086 -24.87695312 80.04882812 C-32.91798528 80.038091 -40.95898817 80.02101472 -49 80 C-49 79.34 -49 78.68 -49 78 C-26.89 78 -4.78 78 18 78 C15.36 68.1 12.72 58.2 10 48 C8.34385642 41.21634872 6.69176405 34.44272278 5.12402344 27.63989258 C4.47855514 24.84463098 3.82156212 22.05221929 3.1640625 19.25976562 C2.74412351 17.45328019 2.32482491 15.64664574 1.90625 13.83984375 C1.61578796 12.60886208 1.61578796 12.60886208 1.31945801 11.35301208 C0.43864311 7.49568275 -0.24392408 3.98725905 0 0 Z " fill="#060606" transform="translate(354,398)"/>
<path d="M0 0 C1.94990121 -0.0038999 3.8998016 -0.00823716 5.84970093 -0.01298523 C9.91919721 -0.02040261 13.98860669 -0.02018988 18.05810547 -0.01489258 C23.21472789 -0.00911752 28.37098882 -0.02600363 33.52755165 -0.04923725 C37.55160521 -0.06413685 41.57557507 -0.0648243 45.59965134 -0.06172752 C47.4978138 -0.06223308 49.39598194 -0.06732266 51.29411697 -0.07753944 C70.11120686 -0.16638514 87.89102779 1.84354135 105.6484375 8.30078125 C106.28620117 8.52636719 106.92396484 8.75195312 107.58105469 8.984375 C116.97246948 12.34082208 125.36075176 16.70845041 133.6484375 22.30078125 C134.58300781 22.92855469 135.51757812 23.55632813 136.48046875 24.203125 C143.78156847 29.31076128 150.21137429 35.17197177 156.6484375 41.30078125 C157.71191406 42.26757812 157.71191406 42.26757812 158.796875 43.25390625 C168.316073 52.19029621 175.95248263 63.61455166 181.6484375 75.30078125 C182.14472656 76.28433594 182.64101563 77.26789063 183.15234375 78.28125 C186.74576012 85.69328322 186.74576012 85.69328322 186.27734375 88.6171875 C186.06980469 89.17277344 185.86226562 89.72835937 185.6484375 90.30078125 C183.77455163 87.48995244 182.41786183 84.67413007 181.03515625 81.60180664 C175.46216658 69.27102906 168.35198577 58.6629625 159.6484375 48.30078125 C159.02324219 47.54023437 158.39804687 46.7796875 157.75390625 45.99609375 C135.19122368 19.43554278 101.395417 6.50934519 67.6484375 2.30078125 C64.97387048 2.21183494 62.32640484 2.16375087 59.65283203 2.17138672 C58.88598083 2.1696344 58.11912964 2.16788208 57.32904053 2.16607666 C54.81308681 2.16170284 52.29720434 2.16458091 49.78125 2.16796875 C48.01919542 2.16729429 46.25714093 2.16632308 44.49508667 2.16506958 C40.8084016 2.16359854 37.12174083 2.16572755 33.43505859 2.17041016 C28.72903565 2.17609867 24.02306986 2.17283022 19.31704903 2.16683769 C15.67946957 2.16320887 12.04190346 2.16438145 8.40432358 2.16696548 C6.67012398 2.16762878 4.93592315 2.16682741 3.20172501 2.16448593 C0.76872847 2.16192208 -1.66417806 2.16585243 -4.09716797 2.17138672 C-4.80187225 2.16936249 -5.50657654 2.16733826 -6.2326355 2.16525269 C-12.33427965 2.19072776 -18.53241406 2.3610651 -24.3515625 4.30078125 C-26.08480369 4.21616633 -27.81549062 4.0647377 -29.5390625 3.86328125 C-30.44011719 3.76144531 -31.34117187 3.65960938 -32.26953125 3.5546875 C-32.95660156 3.47089844 -33.64367187 3.38710938 -34.3515625 3.30078125 C-34.3515625 2.97078125 -34.3515625 2.64078125 -34.3515625 2.30078125 C-22.85202664 0.20899823 -11.65008642 -0.00982761 0 0 Z " fill="#161616" transform="translate(298.3515625,-0.30078125)"/>
<path d="M0 0 C4.9797267 0.55075318 8.92418782 2.20562545 13.3125 4.5 C14.00690186 4.85457275 14.70130371 5.20914551 15.41674805 5.57446289 C21.11510542 8.49809023 26.75593378 11.53048841 32.40014648 14.55688477 C38.78088404 17.94827644 45.2892592 21.04465952 51.8449707 24.08178711 C52.60511475 24.4350708 53.36525879 24.78835449 54.1484375 25.15234375 C55.15656494 25.6162854 55.15656494 25.6162854 56.18505859 26.08959961 C58 27 58 27 61 29 C61.1875 31.625 61.1875 31.625 61 34 C25.38229211 48.67449565 25.38229211 48.67449565 14 44 C11.45506259 41.93091065 9.28597707 39.72078298 7.08203125 37.29296875 C5.30779875 35.33898286 3.55928217 33.69911327 1.5 32.0625 C-1 30 -1 30 -2 28 C-2.02815415 26.14712788 -1.98822622 24.29300758 -1.9140625 22.44140625 C-1.84832031 20.77948242 -1.84832031 20.77948242 -1.78125 19.08398438 C-1.7296875 17.92189453 -1.678125 16.75980469 -1.625 15.5625 C-1.58117187 14.40427734 -1.53734375 13.24605469 -1.4921875 12.05273438 C-1.12973941 3.38921823 -1.12973941 3.38921823 0 0 Z M1 2 C0.22042439 7.91642207 -0.17623071 13.84942135 -0.375 19.8125 C-0.42398437 21.05644531 -0.47296875 22.30039062 -0.5234375 23.58203125 C0.14787757 27.96561846 1.67502772 29.16149384 5 32 C5.72960937 32.79921875 6.45921875 33.5984375 7.2109375 34.421875 C11.60713029 39.20112978 11.60713029 39.20112978 17.25 42.1875 C31.62361082 41.46881946 45.85488043 37.8147823 59 32 C59 31.34 59 30.68 59 30 C58.08065674 29.54431641 57.16131348 29.08863281 56.21411133 28.61914062 C48.4463957 24.75775851 40.7131643 20.83574343 33.01171875 16.84375 C31.30013926 15.95831584 29.58855066 15.07289929 27.87695312 14.1875 C25.25307772 12.82978405 22.63025272 11.4701836 20.01000977 10.10546875 C17.43008331 8.76266821 14.8463115 7.42754166 12.26171875 6.09375 C11.08061775 5.47518127 11.08061775 5.47518127 9.87565613 4.84411621 C9.14671646 4.46952271 8.41777679 4.0949292 7.66674805 3.70898438 C7.02883835 3.37781616 6.39092865 3.04664795 5.73368835 2.70544434 C3.84882531 1.81155162 3.84882531 1.81155162 1 2 Z " fill="#050505" transform="translate(349,273)"/>
<path d="M0 0 C0.66 0 1.32 0 2 0 C1.35646148 2.4104469 0.70153454 4.81732553 0.0390625 7.22265625 C-0.51853688 9.24971867 -1.07427322 11.27732191 -1.61816406 13.30810547 C-4.92233228 25.62298571 -8.79921191 37.35578554 -14 49 C-14.45503906 50.02609375 -14.91007812 51.0521875 -15.37890625 52.109375 C-16.56792632 54.74832865 -17.78017829 57.37516913 -19 60 C-20.67322542 63.66369847 -22.33707365 67.33161762 -24 71 C-24.31582031 71.6909375 -24.63164062 72.381875 -24.95703125 73.09375 C-25.99330324 75.38677739 -26.99948301 77.69111464 -28 80 C-28.26603027 80.60618164 -28.53206055 81.21236328 -28.80615234 81.83691406 C-29.73708757 83.96956502 -30.65080349 86.10906046 -31.5625 88.25 C-31.85560059 88.91660645 -32.14870117 89.58321289 -32.45068359 90.27001953 C-35.23006906 96.87752643 -36.31623938 102.70370397 -38 110 C-56.48 110 -74.96 110 -94 110 C-94 109.67 -94 109.34 -94 109 C-76.51 109 -59.02 109 -41 109 C-40.34 104.71 -39.68 100.42 -39 96 C-37.53059368 92.24212938 -36.03590486 88.77740367 -34.25 85.1875 C-33.26003273 83.11340275 -32.27322751 81.03779422 -31.2890625 78.9609375 C-30.76086914 77.85331055 -30.23267578 76.74568359 -29.68847656 75.60449219 C-26.86834027 69.58417811 -24.20048909 63.49808538 -21.53991699 57.40591431 C-20.65022257 55.37021156 -19.75555192 53.33675303 -18.86035156 51.3034668 C-13.46833261 39.0122802 -8.7348342 26.80801505 -5.3125 13.8125 C-4.73143728 11.60903895 -4.14449743 9.40711661 -3.55078125 7.20703125 C-3.17433472 5.77580933 -3.17433472 5.77580933 -2.7902832 4.31567383 C-2 2 -2 2 0 0 Z " fill="#0B0B0B" transform="translate(247,366)"/>
<path d="M0 0 C0.66 0.33 1.32 0.66 2 1 C1.34515625 1.51046875 0.6903125 2.0209375 0.015625 2.546875 C-29.43446798 26.00711856 -47.05640025 57.08113181 -51.39306641 94.66455078 C-52.84594908 109.92371937 -52.58048649 125.35012738 -52.66955566 140.66424561 C-52.69979787 145.33810634 -52.74617269 150.01180746 -52.79101562 154.68554688 C-52.87608225 163.79027959 -52.94384627 172.89504611 -53 182 C-52.25314941 181.98428955 -51.50629883 181.9685791 -50.73681641 181.95239258 C-47.36628739 181.89018923 -43.99587888 181.8510558 -40.625 181.8125 C-39.449375 181.78736328 -38.27375 181.76222656 -37.0625 181.73632812 C-35.38027344 181.72182617 -35.38027344 181.72182617 -33.6640625 181.70703125 C-32.62717285 181.6913208 -31.5902832 181.67561035 -30.52197266 181.65942383 C-29.27359619 181.82800903 -29.27359619 181.82800903 -28 182 C-27.34 182.99 -26.68 183.98 -26 185 C-30.45827926 185.0578304 -34.9164628 185.09353855 -39.375 185.125 C-40.64601562 185.14175781 -41.91703125 185.15851563 -43.2265625 185.17578125 C-44.43828125 185.18222656 -45.65 185.18867188 -46.8984375 185.1953125 C-48.01911621 185.20578613 -49.13979492 185.21625977 -50.29443359 185.22705078 C-53 185 -53 185 -55 183 C-55.16497234 180.28879191 -55.19684494 177.68289006 -55.14453125 174.97265625 C-55.13581497 174.10455826 -55.12709869 173.23646027 -55.11811829 172.34205627 C-55.09743746 170.35244231 -55.07241409 168.36287069 -55.04400635 166.37335205 C-54.99621266 162.70967787 -54.96997206 159.04623497 -54.94677734 155.38232422 C-54.90502597 148.96682359 -54.84170362 142.55178435 -54.7642498 136.13661766 C-54.7195868 132.41116692 -54.6801935 128.68583221 -54.65356445 124.96020508 C-54.32095976 79.74883303 -44.52129046 42.51970004 -12.03442383 9.70458984 C-8.2794835 6.01477674 -4.35061173 2.96482043 0 0 Z " fill="#060606" transform="translate(205,27)"/>
<path d="M0 0 C-1 2 -1 2 -3.1875 2.82421875 C-4.5796875 3.25154297 -4.5796875 3.25154297 -6 3.6875 C-17.48750416 7.7200306 -25.72459925 16.3015923 -31.3125 26.9375 C-36.86525602 38.79818685 -37.99148877 51.68814979 -34.05078125 64.33203125 C-31.47469906 70.87279012 -27.59649051 80.70175474 -21 84 C-21 84.66 -21 85.32 -21 86 C-20.43410156 86.26941406 -19.86820312 86.53882813 -19.28515625 86.81640625 C-16.89349399 88.05516465 -14.69786561 89.47403429 -12.4375 90.9375 C-7.81341697 93.76562221 -3.42697128 95.20531905 1.84765625 96.359375 C2.55792969 96.57078125 3.26820313 96.7821875 4 97 C4.33 97.66 4.66 98.32 5 99 C-7.7383984 98.07357103 -18.4521449 91.33350467 -27.15234375 82.18359375 C-37.38840211 70.08643387 -40.05115782 56.37318305 -39 41 C-37.71926467 27.71237091 -29.6644353 16.91928187 -20.03125 8.22265625 C-14.92248116 4.10842232 -6.58244941 -2.1941498 0 0 Z " fill="#080808" transform="translate(320,54)"/>
<path d="M0 0 C3 3 3 3 3.36076355 6.17008972 C3.35410172 7.47802994 3.34743988 8.78597015 3.34057617 10.13354492 C3.34101425 10.85574722 3.34145233 11.57794952 3.34190369 12.32203674 C3.33981414 14.70845605 3.31647613 17.09417223 3.29296875 19.48046875 C3.28737336 21.13527543 3.283103 22.79008708 3.28010559 24.44490051 C3.26865224 28.79993414 3.23918098 33.15466751 3.20599365 37.50958252 C3.17530326 41.95361265 3.16160247 46.39769131 3.14648438 50.84179688 C3.11431156 59.56135105 3.06153977 68.28060358 3 77 C9.93 77 16.86 77 24 77 C24 69.41 24 61.82 24 54 C24.33 54 24.66 54 25 54 C25.33 62.58 25.66 71.16 26 80 C17.42 80 8.84 80 0 80 C0 53.6 0 27.2 0 0 Z " fill="#C6C6C6" transform="translate(152,129)"/>
<path d="M0 0 C10.23041669 1.30680505 21.29925406 11.17555022 28.375 18.4375 C30 21 30 21 33 29 C57.75 29.33 82.5 29.66 108 30 C108 30.33 108 30.66 108 31 C85.89 31 63.78 31 41 31 C41 31.66 41 32.32 41 33 C38.14493116 33.2379224 35.79998816 33.41919209 33 33 C30.13344528 30.44334309 29.10528413 28.29368731 27.8125 24.6875 C24.16685492 15.87719106 14.16686026 11.00327692 6.3215332 6.4128418 C1.10287449 3.30862348 1.10287449 3.30862348 0 0 Z " fill="#1C1B1B" transform="translate(264,445)"/>
<path d="M0 0 C0.33 0 0.66 0 1 0 C0.47836185 6.65088641 -1.42863192 9.75369952 -6.41015625 14.10546875 C-7.72306641 15.13607422 -7.72306641 15.13607422 -9.0625 16.1875 C-13.00053998 19.34106986 -16.79176627 22.57906128 -20.5 26 C-24.92153478 30.07032067 -29.49482408 33.87449113 -34.17578125 37.640625 C-37.26476272 40.2211849 -40.19101611 42.93453431 -43.125 45.6875 C-54.62059518 56.36237645 -54.62059518 56.36237645 -61.3125 57.625 C-64.90592175 56.78932052 -65.88699292 56.06272423 -68 53 C-68.35545883 49.38546404 -68.0529747 45.86165082 -67.75 42.25 C-67.68425781 41.26644531 -67.61851562 40.28289062 -67.55078125 39.26953125 C-67.38596499 36.84437769 -67.20175377 34.42231411 -67 32 C-66.67 32 -66.34 32 -66 32 C-65.92652344 33.62808594 -65.92652344 33.62808594 -65.8515625 35.2890625 C-65.77648014 36.73439784 -65.70093472 38.17970919 -65.625 39.625 C-65.57859375 40.69427734 -65.57859375 40.69427734 -65.53125 41.78515625 C-65.28979845 46.17152608 -64.60657269 49.8594834 -63 54 C-57.12625793 53.6458045 -53.9556659 51.90325507 -49.75 48 C-48.61153632 46.9886153 -47.47219999 45.97821213 -46.33203125 44.96875 C-45.77080566 44.46472656 -45.20958008 43.96070313 -44.63134766 43.44140625 C-42.29783973 41.3795938 -39.87006833 39.44323837 -37.4375 37.5 C-32.95687515 33.85827298 -28.70816298 30.02656859 -24.48901367 26.09033203 C-21.18762289 23.0294612 -17.78026416 20.17385584 -14.25 17.375 C-4.95256259 10.1732631 -4.95256259 10.1732631 0 0 Z " fill="#0D0D0D" transform="translate(247,231)"/>
<path d="M0 0 C1 3 1 3 -0.00390625 5.390625 C-0.51824219 6.33421875 -1.03257812 7.2778125 -1.5625 8.25 C-3.98113114 12.91289586 -6.20270965 17.57860129 -8.1875 22.4375 C-8.65542969 23.57058594 -9.12335938 24.70367187 -9.60546875 25.87109375 C-11.49166456 31.45571273 -12.6745547 37.25640369 -14 43 C-32.48 43 -50.96 43 -70 43 C-70 42.67 -70 42.34 -70 42 C-52.51 42 -35.02 42 -17 42 C-16.34 37.71 -15.68 33.42 -15 29 C-13.82666016 25.40039062 -13.82666016 25.40039062 -12.5390625 22.65625 C-12.06726563 21.63789063 -11.59546875 20.61953125 -11.109375 19.5703125 C-10.61953125 18.55710937 -10.1296875 17.54390625 -9.625 16.5 C-9.14289063 15.45585937 -8.66078125 14.41171875 -8.1640625 13.3359375 C-5.8696821 8.46037915 -3.69686769 3.99471959 0 0 Z " fill="#282728" transform="translate(223,433)"/>
<path d="M0 0 C20.46 0.33 40.92 0.66 62 1 C61.67 1.66 61.34 2.32 61 3 C58.22416023 3.92527992 56.56708347 4.12639479 53.703125 4.12939453 C52.83792236 4.13254669 51.97271973 4.13569885 51.08129883 4.13894653 C49.67980591 4.13591019 49.67980591 4.13591019 48.25 4.1328125 C46.79726685 4.13424759 46.79726685 4.13424759 45.31518555 4.13571167 C43.26074153 4.13639274 41.20629536 4.13454352 39.15185547 4.13037109 C36.03998833 4.12506814 32.92826861 4.13029439 29.81640625 4.13671875 C27.81510385 4.13605705 25.81380155 4.13477399 23.8125 4.1328125 C22.89436523 4.13483673 21.97623047 4.13686096 21.03027344 4.13894653 C16.32807527 4.12230036 11.64200619 3.98371127 6.94921875 3.67919922 C6.04905029 3.62238983 5.14888184 3.56558044 4.22143555 3.50704956 C2 3 2 3 0 0 Z " fill="#141414" transform="translate(61,474)"/>
<path d="M0 0 C0.99 1.98 0.99 1.98 2 4 C1 5 1 5 -1.70179749 5.12025452 C-2.90758957 5.11803391 -4.11338165 5.11581329 -5.35571289 5.11352539 C-6.01910172 5.11367142 -6.68249054 5.11381744 -7.36598206 5.1139679 C-9.56823956 5.11326881 -11.77041345 5.10547665 -13.97265625 5.09765625 C-15.49580336 5.09579206 -17.01895107 5.09436816 -18.542099 5.09336853 C-22.55837651 5.08954346 -26.57461808 5.07971328 -30.59088135 5.06866455 C-34.68623366 5.05845019 -38.78159176 5.05387086 -42.87695312 5.04882812 C-50.91798528 5.038091 -58.95898817 5.02101472 -67 5 C-67 4.34 -67 3.68 -67 3 C-44.89 3 -22.78 3 0 3 C0 2.01 0 1.02 0 0 Z " fill="#000000" transform="translate(372,473)"/>
<path d="M0 0 C0.66 0.33 1.32 0.66 2 1 C1.52240234 2.61068359 1.52240234 2.61068359 1.03515625 4.25390625 C-0.344992 9.77085127 -0.41660151 15.27592699 -0.5625 20.9375 C-0.62212751 23.00923894 -0.68570406 25.08086936 -0.75390625 27.15234375 C-0.77783447 28.05976318 -0.8017627 28.96718262 -0.82641602 29.90209961 C-1 32 -1 32 -2 33 C-3.99964982 33.08758003 -6.0023611 33.10696576 -8.00390625 33.09765625 C-9.21884766 33.09443359 -10.43378906 33.09121094 -11.68554688 33.08789062 C-12.96494141 33.07951172 -14.24433594 33.07113281 -15.5625 33.0625 C-16.84576172 33.05798828 -18.12902344 33.05347656 -19.45117188 33.04882812 C-22.63416022 33.03699545 -25.81705762 33.02051068 -29 33 C-29 32.67 -29 32.34 -29 32 C-21.08 31.67 -13.16 31.34 -5 31 C-4.97421875 29.18113281 -4.9484375 27.36226562 -4.921875 25.48828125 C-4.8655938 23.09633018 -4.80824647 20.70440402 -4.75 18.3125 C-4.73582031 17.11431641 -4.72164062 15.91613281 -4.70703125 14.68164062 C-4.67480469 13.52470703 -4.64257812 12.36777344 -4.609375 11.17578125 C-4.58842773 10.11270752 -4.56748047 9.04963379 -4.54589844 7.9543457 C-3.88336218 4.36876823 -2.45152338 2.64158051 0 0 Z " fill="#0F0F0F" transform="translate(182,178)"/>
<path d="M0 0 C1.15757812 -0.00128906 2.31515625 -0.00257813 3.5078125 -0.00390625 C5.32925781 0.00189453 5.32925781 0.00189453 7.1875 0.0078125 C9.00894531 0.00201172 9.00894531 0.00201172 10.8671875 -0.00390625 C12.60355469 -0.00197266 12.60355469 -0.00197266 14.375 0 C15.44105469 0.00112793 16.50710937 0.00225586 17.60546875 0.00341797 C20.1875 0.1328125 20.1875 0.1328125 22.1875 1.1328125 C21.8575 9.7128125 21.5275 18.2928125 21.1875 27.1328125 C20.5275 27.1328125 19.8675 27.1328125 19.1875 27.1328125 C19.1875 18.8828125 19.1875 10.6328125 19.1875 2.1328125 C5.8225 2.6278125 5.8225 2.6278125 -7.8125 3.1328125 C-7.8125 2.4728125 -7.8125 1.8128125 -7.8125 1.1328125 C-5.11984639 -0.2135143 -3.01135751 0.00318614 0 0 Z " fill="#080808" transform="translate(158.8125,254.8671875)"/>
<path d="M0 0 C0.66 0.33 1.32 0.66 2 1 C1.01 1.33 0.02 1.66 -1 2 C-1.33 2.99 -1.66 3.98 -2 5 C-4.78043397 6.20836158 -7.43670204 7.20490638 -10.3125 8.125 C-11.12251465 8.39070801 -11.9325293 8.65641602 -12.76708984 8.93017578 C-19.14738612 10.93215973 -25.29174532 11.97369312 -32 12 C-32 11.34 -32 10.68 -32 10 C-32.99 9.67 -33.98 9.34 -35 9 C-34.23558594 8.90203125 -33.47117187 8.8040625 -32.68359375 8.703125 C-22.70412611 7.31008259 -12.40821517 5.50316227 -3.1796875 1.30859375 C-2.13039063 0.87675781 -1.08109375 0.44492187 0 0 Z " fill="#0E0E0E" transform="translate(405,305)"/>
<path d="M0 0 C0.495 1.485 0.495 1.485 1 3 C0.67 3.66 0.34 4.32 0 5 C-23.1 5 -46.2 5 -70 5 C-70 4.67 -70 4.34 -70 4 C-68.7509211 3.99120064 -68.7509211 3.99120064 -67.47660828 3.98222351 C-59.63364765 3.92434891 -51.79097341 3.85230265 -43.94829082 3.76428509 C-39.91614971 3.71953412 -35.88411073 3.68028872 -31.85180664 3.65356445 C-27.96126837 3.62757818 -24.07112217 3.58720977 -20.18082619 3.53681374 C-18.69570602 3.52011319 -17.21051799 3.50861877 -15.725317 3.50238609 C-13.64678095 3.4927791 -11.56925515 3.46476379 -9.4909668 3.43237305 C-8.30738083 3.42126999 -7.12379486 3.41016693 -5.90434265 3.39872742 C-2.97806849 3.25016951 -2.97806849 3.25016951 -1.09431458 1.47297668 C-0.73319077 0.98689438 -0.37206696 0.50081207 0 0 Z " fill="#D0D0D1" transform="translate(370,469)"/>
<path d="M0 0 C0.66 0 1.32 0 2 0 C0.75413818 3.73758545 -0.8790456 4.27312884 -4.26904297 6.0078125 C-5.3424292 6.52988281 -5.3424292 6.52988281 -6.4375 7.0625 C-7.16598145 7.41957031 -7.89446289 7.77664062 -8.64501953 8.14453125 C-16.99550063 12.11336997 -25.68601692 14.2179824 -35 13 C-35.66 12.34 -36.32 11.68 -37 11 C-35.71029297 10.96132812 -35.71029297 10.96132812 -34.39453125 10.921875 C-23.10496019 10.38017257 -8.4990324 8.4990324 0 0 Z " fill="#141415" transform="translate(362,141)"/>
<path d="M0 0 C0.33 0 0.66 0 1 0 C1.07409532 5.92648574 1.12857616 11.85270253 1.16479492 17.77954102 C1.17989179 19.79619034 1.20037115 21.81280679 1.22631836 23.8293457 C1.26266211 26.72615671 1.2797172 29.62253406 1.29296875 32.51953125 C1.30845261 33.42274612 1.32393646 34.325961 1.33988953 35.25654602 C1.34011612 36.09719101 1.34034271 36.937836 1.34057617 37.80395508 C1.34723801 38.54341873 1.35389984 39.28288239 1.36076355 40.04475403 C1 42 1 42 -2 45 C-2 39.06 -2 33.12 -2 27 C-1.34 27 -0.68 27 0 27 C-0.08378906 25.88882813 -0.16757812 24.77765625 -0.25390625 23.6328125 C-0.81804952 15.60212022 -1.14396503 8.00775521 0 0 Z " fill="#D2D2D3" transform="translate(492,133)"/>
<path d="M0 0 C0.33 0 0.66 0 1 0 C0.47628472 6.67736985 -1.45104136 9.76864324 -6.4453125 14.140625 C-7.32960937 14.83671875 -8.21390625 15.5328125 -9.125 16.25 C-14.60457778 20.63808719 -19.82859701 25.25487318 -25 30 C-25 27 -25 27 -22.4375 24.328125 C-21.2992597 23.29366642 -20.15291559 22.2680772 -19 21.25 C-18.11175537 20.44755859 -18.11175537 20.44755859 -17.20556641 19.62890625 C-13.3870008 16.19021975 -9.52382959 12.80163879 -5.5859375 9.5 C-2.58685661 6.66343088 -0.73042115 4.09035845 0 0 Z " fill="#131313" transform="translate(247,231)"/>
<path d="M0 0 C1 3 1 3 0.10375977 5.36010742 C-0.36231689 6.26607666 -0.82839355 7.1720459 -1.30859375 8.10546875 C-1.80810547 9.08837891 -2.30761719 10.07128906 -2.82226562 11.08398438 C-3.35529297 12.10814453 -3.88832031 13.13230469 -4.4375 14.1875 C-4.96666016 15.22326172 -5.49582031 16.25902344 -6.04101562 17.32617188 C-7.35185799 19.88880966 -8.67178957 22.44633287 -10 25 C-10.66 24.67 -11.32 24.34 -12 24 C-10.47980498 18.96435401 -8.36386407 14.42633979 -6 9.75 C-5.64421875 9.03070313 -5.2884375 8.31140625 -4.921875 7.5703125 C-2.25352444 2.25352444 -2.25352444 2.25352444 0 0 Z " fill="#121212" transform="translate(289,390)"/>
<path d="M0 0 C1.64548828 0.52400391 1.64548828 0.52400391 3.32421875 1.05859375 C4.77860238 1.51836664 6.23303189 1.97799441 7.6875 2.4375 C8.40873047 2.66759766 9.12996094 2.89769531 9.87304688 3.13476562 C13.56180375 4.2969767 17.17959607 5.34442773 21 6 C21 6.66 21 7.32 21 8 C21.99 8.33 22.98 8.66 24 9 C17.93392435 9.3908344 13.24751558 8.03396206 7.5625 6 C6.73556641 5.71382813 5.90863281 5.42765625 5.05664062 5.1328125 C3.03441032 4.43146095 1.01671572 3.71705448 -1 3 C-0.67 2.01 -0.34 1.02 0 0 Z " fill="#050506" transform="translate(40,467)"/>
<path d="M0 0 C4.23322844 0.62045463 7.52290295 2.10523559 11.3125 4.0625 C12.38113281 4.61035156 13.44976562 5.15820312 14.55078125 5.72265625 C15.35902344 6.14417969 16.16726563 6.56570313 17 7 C15.25390625 8.15234375 15.25390625 8.15234375 13 9 C10.96484375 8.06640625 10.96484375 8.06640625 8.9375 6.5625 C6.9767053 5.05697308 6.9767053 5.05697308 5 4 C4.01 4.33 3.02 4.66 2 5 C1.34 4.34 0.68 3.68 0 3 C0 2.01 0 1.02 0 0 Z " fill="#D7D7D8" transform="translate(350,275)"/>
<path d="M0 0 C0.99 0.33 1.98 0.66 3 1 C2.34 5.29 1.68 9.58 1 14 C-0.32 13.67 -1.64 13.34 -3 13 C-2.01 8.71 -1.02 4.42 0 0 Z " fill="#0E0F0F" transform="translate(208,462)"/>
<path d="M0 0 C0 3.19490342 -0.59110506 4.59617544 -1.9375 7.4375 C-3.02328738 9.73750122 -3.94521579 11.72413968 -4.44140625 14.22265625 C-4.62574219 14.80917969 -4.81007813 15.39570312 -5 16 C-5.99 16.33 -6.98 16.66 -8 17 C-7.53262113 11.07986759 -5.03791739 6.02533998 -2 1 C-1.34 0.67 -0.68 0.34 0 0 Z " fill="#0F0F0F" transform="translate(290,75)"/>
<path d="M0 0 C0.66 0 1.32 0 2 0 C1.01 5.28 0.02 10.56 -1 16 C-1.66 16 -2.32 16 -3 16 C-3.37851209 10.06997733 -2.10575375 5.52760359 0 0 Z " fill="#0E0F0F" transform="translate(261,214)"/>
<path d="M0 0 C0.33 0 0.66 0 1 0 C0.67 5.94 0.34 11.88 0 18 C-0.66 18 -1.32 18 -2 18 C-2.054138 15.75026553 -2.09285491 13.50015617 -2.125 11.25 C-2.14820313 9.99703125 -2.17140625 8.7440625 -2.1953125 7.453125 C-2.01537302 4.27179508 -1.68998582 2.63478104 0 0 Z " fill="#040403" transform="translate(283,91)"/>
<path d="M0 0 C-3.68713736 2.26169766 -7.539556 2.63948566 -11.75 3.125 C-12.44738281 3.21136719 -13.14476562 3.29773437 -13.86328125 3.38671875 C-15.57472332 3.59771846 -17.28726629 3.79975501 -19 4 C-17 1 -17 1 -14.5625 0.3125 C-9.70232229 -0.11383138 -4.87526268 -0.0780736 0 0 Z " fill="#1C1C1C" transform="translate(338,51)"/>
<path d="M0 0 C0 3.65803648 -0.72350988 4.1770985 -3.125 6.8125 C-4.07439453 7.85857422 -4.07439453 7.85857422 -5.04296875 8.92578125 C-7.64014564 11.67847771 -10.2910642 14.3571358 -13 17 C-13.99 16.67 -14.98 16.34 -16 16 C-15.18015625 15.26394531 -14.3603125 14.52789062 -13.515625 13.76953125 C-12.42690461 12.78405158 -11.33837294 11.79836339 -10.25 10.8125 C-9.71117187 10.32974609 -9.17234375 9.84699219 -8.6171875 9.34960938 C-5.41287909 6.43837795 -2.6158121 3.47293499 0 0 Z " fill="#EEEFEE" transform="translate(375,130)"/>
<path d="M0 0 C1.1875 1.5 1.1875 1.5 2 4 C1.27101296 6.78824238 0.1843275 9.37665092 -1 12 C-1.66 12 -2.32 12 -3 12 C-3.33 12.99 -3.66 13.98 -4 15 C-5 13 -5 13 -4.51171875 11.23046875 C-4.23972656 10.55628906 -3.96773437 9.88210938 -3.6875 9.1875 C-3.40648437 8.47980469 -3.12546875 7.77210938 -2.8359375 7.04296875 C-2.42214844 6.03169922 -2.42214844 6.03169922 -2 5 C-1.4121875 3.515 -1.4121875 3.515 -0.8125 2 C-0.544375 1.34 -0.27625 0.68 0 0 Z " fill="#121011" transform="translate(240,388)"/>
<path d="M0 0 C4.49797113 1.68673918 8.72886302 3.81673892 13 6 C13 6.99 13 7.98 13 9 C8.71 6.69 4.42 4.38 0 2 C0 1.34 0 0.68 0 0 Z " fill="#101010" transform="translate(375,285)"/>
<path d="M0 0 C-0.71027344 0.19335938 -1.42054688 0.38671875 -2.15234375 0.5859375 C-3.53099609 0.97652344 -3.53099609 0.97652344 -4.9375 1.375 C-5.85402344 1.63023438 -6.77054688 1.88546875 -7.71484375 2.1484375 C-10.16745087 2.76660104 -10.16745087 2.76660104 -11 5 C-13.28515625 5.4140625 -13.28515625 5.4140625 -16.0625 5.625 C-16.98160156 5.69976563 -17.90070313 5.77453125 -18.84765625 5.8515625 C-19.91306641 5.92503906 -19.91306641 5.92503906 -21 6 C-18.29517875 3.29517875 -15.17456319 2.4923264 -11.625 1.3125 C-10.95210937 1.07466797 -10.27921875 0.83683594 -9.5859375 0.59179688 C-3.46053366 -1.46407193 -3.46053366 -1.46407193 0 0 Z " fill="#3C3C3D" transform="translate(254,6)"/>
<path d="M0 0 C0.99 0 1.98 0 3 0 C4.17571451 3.67410785 4.07366746 7.16929183 4 11 C3.01 11 2.02 11 1 11 C0.67 7.37 0.34 3.74 0 0 Z " fill="#141414" transform="translate(352,389)"/>
<path d="M0 0 C0.33 0 0.66 0 1 0 C0.58419203 5.30155158 -0.21424391 8.21424391 -4 12 C-5.95851344 13.39355764 -7.95127113 14.74282547 -10 16 C-8.20401626 11.95678032 -5.56018085 9.19503658 -2.55859375 6 C-0.95680421 3.94457081 -0.41460561 2.54442895 0 0 Z " fill="#202020" transform="translate(247,231)"/>
<path d="M0 0 C0.94875 0.350625 1.8975 0.70125 2.875 1.0625 C5.87060172 2.35026777 5.87060172 2.35026777 8 1 C8.33 1.99 8.66 2.98 9 4 C7.35 4.66 5.7 5.32 4 6 C2.62437146 4.71034824 1.29233607 3.37310707 0 2 C0 1.34 0 0.68 0 0 Z " fill="#010201" transform="translate(432,284)"/>
<path d="M0 0 C1 3 1 3 -0.4375 6.1875 C-1.2109375 7.5796875 -1.2109375 7.5796875 -2 9 C-2.66 9 -3.32 9 -4 9 C-3.46930939 5.17902761 -2.50298434 2.93828597 0 0 Z " fill="#040404" transform="translate(293,381)"/>
<path d="M0 0 C0.66 0.33 1.32 0.66 2 1 C1.01 3.64 0.02 6.28 -1 9 C-1.99 8.67 -2.98 8.34 -4 8 C-2.87548273 5.0280615 -1.77706209 2.66559313 0 0 Z " fill="#040405" transform="translate(213,454)"/>
<path d="M0 0 C2.09350689 3.4019487 2.17942163 6.05272412 2 10 C1.01 10.33 0.02 10.66 -1 11 C-1.042721 9.33388095 -1.04063832 7.66617115 -1 6 C-0.67 5.67 -0.34 5.34 0 5 C0.04063832 3.33382885 0.042721 1.66611905 0 0 Z " fill="#0E100F" transform="translate(100,359)"/>
<path d="M0 0 C3.82097239 0.53069061 6.06171403 1.49701566 9 4 C6 5 6 5 3 5 C2.01 4.34 1.02 3.68 0 3 C0 2.01 0 1.02 0 0 Z " fill="#D1D1D1" transform="translate(350,275)"/>
<path d="M0 0 C0.99 0.33 1.98 0.66 3 1 C3.33 3.64 3.66 6.28 4 9 C3.01 9.495 3.01 9.495 2 10 C1.34 6.7 0.68 3.4 0 0 Z " fill="#0F0E0E" transform="translate(281,109)"/>
<path d="M0 0 C0.66 0.33 1.32 0.66 2 1 C1.34 2.65 0.68 4.3 0 6 C-0.66 6 -1.32 6 -2 6 C-2.33 6.99 -2.66 7.98 -3 9 C-3.33 8.34 -3.66 7.68 -4 7 C-3.22265625 5.2734375 -3.22265625 5.2734375 -2.0625 3.375 C-1.381875 2.26125 -0.70125 1.1475 0 0 Z " fill="#121212" transform="translate(215,448)"/>
<path d="M0 0 C0.66 0 1.32 0 2 0 C3.49821059 3.37097383 4 5.20442119 4 9 C3.34 9 2.68 9 2 9 C1.34 6.03 0.68 3.06 0 0 Z " fill="#020202" transform="translate(484,89)"/>
<path d="M0 0 C2.97 0 5.94 0 9 0 C8.67 0.99 8.34 1.98 8 3 C6.35 3 4.7 3 3 3 C3 2.34 3 1.68 3 1 C2.01 0.67 1.02 0.34 0 0 Z " fill="#1A1A19" transform="translate(370,314)"/>
<path d="M0 0 C1.32 0 2.64 0 4 0 C3.67 0.99 3.34 1.98 3 3 C1.02 3.33 -0.96 3.66 -3 4 C-3 3.34 -3 2.68 -3 2 C-2.01 2 -1.02 2 0 2 C0 1.34 0 0.68 0 0 Z " fill="#070507" transform="translate(388,311)"/>
<path d="M0 0 C0.66 0.33 1.32 0.66 2 1 C1.3125 2.9375 1.3125 2.9375 0 5 C-2.625 5.75 -2.625 5.75 -5 6 C-3.35 4.02 -1.7 2.04 0 0 Z " fill="#0D0D0E" transform="translate(454,271)"/>
<path d="M0 0 C2.08954032 4.17908064 2.16552619 4.80410573 1 9 C0.34 9 -0.32 9 -1 9 C-0.67 6.03 -0.34 3.06 0 0 Z " fill="#030303" transform="translate(490,198)"/>
<path d="M0 0 C3.36720387 1.39332574 4.9859524 2.9789286 7 6 C4 6 4 6 1.8125 4.125 C0 2 0 2 0 0 Z " fill="#CECECE" transform="translate(448,38)"/>
<path d="M0 0 C0.66 0 1.32 0 2 0 C3.42944945 2.35438733 4.08661261 3.48032433 3.625 6.25 C3.41875 6.8275 3.2125 7.405 3 8 C1.0549 5.08235 0.54723683 3.37462715 0 0 Z " fill="#101010" transform="translate(481,82)"/>
<path d="M0 0 C0.99 0.33 1.98 0.66 3 1 C2.01 2.485 2.01 2.485 1 4 C-2.625 4.6875 -2.625 4.6875 -6 5 C-4.06745228 2.9754262 -2.36841312 1.57894208 0 0 Z " fill="#49494A" transform="translate(220,17)"/>
</svg>
